<svg width="353" height="255" viewBox="0 0 353 255" fill="none" xmlns="http://www.w3.org/2000/svg">
<path d="M294.235 240.438C269.808 235.458 226.947 234.795 199.706 241.667C195.528 242.715 190.649 243.941 185.206 245.207C161.394 250.739 126.857 257.107 93.6901 253.918C85.0625 253.131 76.5222 251.576 68.1702 249.274C21.0536 236.022 -9.33014 174.746 2.59904 128.884C23.4122 48.8657 91.9762 36.7557 145.144 37.7122C198.312 38.6687 291.114 55.4304 333.466 116.455C380.161 183.735 333.466 248.459 294.235 240.438Z" fill="#0083B3"/>
<path d="M281.714 74.4407H194.184C193.35 74.4407 192.55 74.772 191.961 75.3618C191.371 75.9515 191.039 76.7514 191.039 77.5854C191.039 78.4195 191.371 79.2194 191.961 79.8091C192.55 80.3989 193.35 80.7302 194.184 80.7302H281.714C282.548 80.7302 283.348 80.3989 283.937 79.8091C284.527 79.2194 284.859 78.4195 284.859 77.5854C284.859 76.7514 284.527 75.9515 283.937 75.3618C283.348 74.772 282.548 74.4407 281.714 74.4407Z" fill="url(#paint0_linear_417_599)"/>
<path d="M321.387 206.689C320.821 205.919 319.315 205.198 317.325 204.239C317.325 204.239 316.555 204.839 316.503 204.886C316.503 204.886 316.503 204.936 316.55 205.009L316.254 205.219L315.934 204.886L315.124 205.57C315.124 205.57 315.418 209.666 317.315 209.805C317.991 209.855 318.311 209.436 318.455 208.953C319.304 209.569 320.004 209.608 320.14 209.179C320.204 208.89 320.163 208.588 320.025 208.327C321.44 208.62 321.909 207.394 321.387 206.689Z" fill="url(#paint1_linear_417_599)"/>
<path d="M208.645 212.562C217.487 213.039 228.114 211.983 228.114 211.983L230.595 216.548L218.331 217.413L208.645 212.562Z" fill="#D39E5F"/>
<path d="M221.323 131.754C217.34 131.754 214.101 127.823 214.101 123.004C214.101 119.663 215.707 116.565 218.194 115.119C218.763 114.803 219.237 114.342 219.569 113.783C219.901 113.224 220.079 112.587 220.084 111.937V92.6543C220.084 92.5501 220.125 92.4501 220.199 92.3764C220.273 92.3026 220.373 92.2612 220.477 92.2612H222.178C222.282 92.2612 222.382 92.3026 222.456 92.3764C222.529 92.4501 222.571 92.5501 222.571 92.6543V111.937C222.576 112.587 222.753 113.224 223.085 113.783C223.417 114.342 223.892 114.803 224.46 115.119C226.947 116.565 228.554 119.663 228.554 123.004C228.546 127.829 225.307 131.754 221.323 131.754Z" fill="url(#paint2_linear_417_599)"/>
<path d="M246.437 131.754C241.073 131.754 236.709 127.823 236.709 123.004V92.6543C236.709 92.5501 236.751 92.4501 236.825 92.3764C236.898 92.3026 236.998 92.2612 237.103 92.2612H238.803C238.908 92.2612 239.008 92.3026 239.081 92.3764C239.155 92.4501 239.196 92.5501 239.196 92.6543V119.909C239.196 120.465 239.417 120.998 239.811 121.392C240.204 121.785 240.737 122.006 241.293 122.006H255.743C255.842 122.005 255.938 122.042 256.011 122.109C256.084 122.176 256.128 122.269 256.136 122.367C256.152 122.572 256.16 122.779 256.16 122.986C256.165 127.829 251.799 131.754 246.437 131.754Z" fill="url(#paint3_linear_417_599)"/>
<path d="M276.485 116.203L273.915 113.667C273.452 113.208 273.085 112.663 272.833 112.062C272.582 111.461 272.452 110.817 272.45 110.165V92.6543C272.45 92.5501 272.408 92.4501 272.335 92.3764C272.261 92.3026 272.161 92.2612 272.057 92.2612H270.356C270.252 92.2612 270.152 92.3026 270.078 92.3764C270.004 92.4501 269.963 92.5501 269.963 92.6543V110.165C269.961 110.817 269.83 111.461 269.579 112.062C269.328 112.663 268.96 113.208 268.498 113.667L265.927 116.203C265.435 116.691 265.045 117.271 264.778 117.91C264.51 118.549 264.372 119.235 264.37 119.927V128.885C264.37 128.989 264.412 129.089 264.485 129.163C264.559 129.236 264.659 129.278 264.763 129.278H277.644C277.748 129.278 277.848 129.236 277.922 129.163C277.995 129.089 278.037 128.989 278.037 128.885V119.927C278.036 119.235 277.898 118.55 277.632 117.911C277.366 117.272 276.976 116.692 276.485 116.203Z" fill="url(#paint4_linear_417_599)"/>
<path d="M221.324 75.1167C220.506 75.1174 219.723 75.4423 219.145 76.0201C218.567 76.5979 218.242 77.3814 218.242 78.1986V93.3669C218.242 93.4711 218.283 93.5711 218.357 93.6448C218.431 93.7186 218.531 93.76 218.635 93.76H224.012C224.117 93.76 224.217 93.7186 224.29 93.6448C224.364 93.5711 224.405 93.4711 224.405 93.3669V78.1986C224.405 77.3814 224.08 76.5979 223.502 76.0201C222.924 75.4423 222.141 75.1174 221.324 75.1167Z" fill="url(#paint5_linear_417_599)"/>
<path d="M271.207 75.1167C270.39 75.1174 269.607 75.4423 269.029 76.0201C268.451 76.5979 268.126 77.3814 268.125 78.1986V93.3669C268.125 93.4711 268.167 93.5711 268.241 93.6448C268.314 93.7186 268.414 93.76 268.519 93.76H273.896C274 93.76 274.1 93.7186 274.174 93.6448C274.248 93.5711 274.289 93.4711 274.289 93.3669V78.1986C274.289 77.3814 273.964 76.5979 273.386 76.0201C272.808 75.4423 272.025 75.1174 271.207 75.1167Z" fill="url(#paint6_linear_417_599)"/>
<path d="M237.952 75.1167C237.134 75.1174 236.351 75.4423 235.773 76.0201C235.195 76.5979 234.87 77.3814 234.87 78.1986V93.3669C234.87 93.4711 234.911 93.5711 234.985 93.6448C235.059 93.7186 235.159 93.76 235.263 93.76H240.64C240.745 93.76 240.845 93.7186 240.918 93.6448C240.992 93.5711 241.034 93.4711 241.034 93.3669V78.1986C241.033 77.3814 240.708 76.5979 240.13 76.0201C239.552 75.4423 238.769 75.1174 237.952 75.1167Z" fill="url(#paint7_linear_417_599)"/>
<path d="M170.887 46.2609C170.887 46.2609 169.262 59.5895 168.206 64.7102C165.226 79.1526 161.825 84.9075 158.006 88.2803C154.188 91.6531 149.227 91.4094 149.227 91.4094C149.227 91.4094 148.027 93.3329 146.444 95.8776C143.391 100.783 138.904 107.993 138.823 108.153C138.703 108.396 115.499 90.272 115.499 90.272C119.525 78.8932 121.071 67.5536 121.071 67.5536C115.211 64.5032 115.968 58.253 120.638 57.2676C120.437 52.8313 120.648 48.3859 121.27 43.9888L128.841 44.3347L170.887 46.2609Z" fill="#F2BA70"/>
<path d="M130.827 64.3881C130.154 62.1369 125.429 56.568 120.636 57.2651C120.434 52.8289 120.645 48.3834 121.267 43.9863L128.841 44.3349C133.668 47.0105 138.652 49.7648 138.652 49.7648C138.928 59.8334 130.827 64.3881 130.827 64.3881Z" fill="url(#paint8_linear_417_599)"/>
<path d="M178.591 13.0518L172.996 39.2059L169.985 53.3128C169.985 53.3128 166.245 55.4801 153.137 54.8118C140.028 54.1436 126.323 49.374 121.275 43.9885C121.462 42.5472 121.649 41.1312 121.836 39.7405C121.972 38.7167 122.11 37.7069 122.25 36.711C122.376 35.8008 122.502 34.9045 122.627 34.0222C122.664 33.7602 122.698 33.5269 122.735 33.2832C122.943 31.8314 123.15 30.4171 123.356 29.0404C123.849 25.741 124.331 22.6722 124.787 19.8681C124.855 19.4488 124.923 19.0374 124.989 18.6312C125.054 18.225 125.122 17.824 125.188 17.4309C125.253 17.0378 125.319 16.6447 125.382 16.27L125.665 14.5954C125.741 14.1551 125.814 13.7253 125.887 13.306C125.929 13.0623 125.971 12.8186 126.013 12.5801C126.013 12.5513 126.013 12.5251 126.013 12.4989C126.05 12.2866 126.087 12.0796 126.123 11.8725C126.246 11.1737 126.364 10.5072 126.477 9.87298L126.556 9.43533C126.595 9.21782 126.632 9.00292 126.671 8.79327C126.881 7.63232 127.072 6.59455 127.24 5.68781C127.266 5.55416 127.29 5.42574 127.316 5.29471C127.342 5.16368 127.373 4.98023 127.402 4.82824C127.613 3.71478 128.17 2.69608 128.993 1.91665C129.815 1.13721 130.862 0.636601 131.986 0.485824C144.187 -1.18353 165.53 1.57339 175.887 7.17371C176.912 7.7295 177.73 8.60269 178.218 9.66242C178.705 10.7222 178.836 11.9114 178.591 13.0518Z" fill="url(#paint9_linear_417_599)"/>
<path d="M149.227 91.4094C149.227 91.4094 148.027 93.3329 146.444 95.8776C135.699 94.7245 133.133 85.6571 132.481 83.0784C131.726 80.1065 132.135 73.1802 132.135 73.1802C135.206 87.2766 142.649 91.2076 149.227 91.4094Z" fill="#D39E5F"/>
<path d="M207.61 208.34C201.179 219.994 190.893 224.326 187.596 224.255C184.299 224.184 183.665 221.443 183.665 221.443C184.079 227.434 184.713 237.167 185.214 245.204C161.403 250.737 126.865 257.105 93.6982 253.915C94.2538 248.179 95.2496 243.553 95.4933 239.525C95.6453 237.036 95.6139 232.397 95.5169 227.594C95.3545 219.682 95.0111 211.314 95.0111 211.314L88.8579 210.059L88.6928 210.025L84.0883 209.087C77.0807 217.006 66.5719 223.802 59.5302 217.247C52.7165 210.905 43.0202 199.909 40.8712 193.976C38.7223 188.043 39.823 177.175 41.7754 173.236C43.7277 169.297 60.665 135.219 67.9268 121.347C74.2163 109.329 80.5059 104.769 84.028 102.966C84.5679 102.688 85.0396 102.476 85.4379 102.314C88.4281 101.079 108.222 96.4775 108.458 96.3334C109.752 89.6743 110.072 87.7901 110.735 85.5599C111.317 83.6075 114.37 82.5671 118.018 82.1138C117.913 82.5069 117.803 82.9 117.69 83.3035C117.318 84.6374 116.904 86.0054 116.469 87.3918C119.352 88.2487 132.337 91.7761 134.289 93.9879C136.061 95.9848 136.029 99.3943 136.029 99.3943H142.246C141.957 90.2876 149.23 91.3935 149.23 91.3935L149.662 97.248C149.662 97.248 163.004 98.616 167.988 101.588C172.973 104.56 179.401 113.003 183.099 128.434C186.797 143.864 190.573 167.657 194.512 177.463C198.451 187.27 205.283 189.358 207.615 194.422C209.947 199.485 207.61 208.34 207.61 208.34Z" fill="url(#paint10_linear_417_599)"/>
<path d="M88.6848 210.025L84.0804 209.087C77.0728 217.007 66.564 223.802 59.5223 217.248C52.7086 210.906 43.0122 199.909 40.8633 193.976C38.7144 188.043 39.815 177.175 41.7674 173.237C43.7198 169.298 60.657 135.219 67.9188 121.348C74.2084 109.329 80.4979 104.77 84.0201 102.967C91.599 107.886 99.136 116.227 100.006 130.101C101.191 149.001 93.8659 186.471 88.6848 210.025Z" fill="url(#paint11_linear_417_599)"/>
<path d="M114.983 99.5203H114.907C114.71 99.4836 110.095 98.5795 108.169 96.6376C108.1 96.5628 108.063 96.464 108.065 96.3622C108.067 96.2603 108.109 96.1633 108.181 96.0916C108.254 96.0199 108.351 95.9791 108.453 95.9778C108.555 95.9765 108.653 96.0148 108.727 96.0846C110.483 97.8588 115.017 98.7446 115.054 98.7525C115.105 98.7573 115.155 98.7722 115.201 98.7964C115.247 98.8206 115.288 98.8536 115.321 98.8935C115.354 98.9334 115.379 98.9795 115.394 99.029C115.41 99.0786 115.415 99.1306 115.41 99.1823C115.405 99.2339 115.39 99.284 115.366 99.3299C115.342 99.3757 115.309 99.4164 115.269 99.4495C115.229 99.4826 115.183 99.5075 115.134 99.5228C115.084 99.5381 115.032 99.5435 114.98 99.5387L114.983 99.5203Z" fill="#C5E0E2"/>
<path d="M207.61 208.343C201.179 219.997 190.892 224.329 187.596 224.258C184.509 224.182 183.749 221.776 183.665 221.477V221.446C184.079 227.437 184.713 237.17 185.214 245.207C173.014 248.04 157.998 251.096 141.795 252.97C141.42 210.837 130.421 176.863 129.336 171.95C123.104 143.77 121.115 119.946 120.004 112.133C118.893 104.321 118.84 99.4103 118.84 99.4103H142.243C141.955 90.3035 149.227 91.4094 149.227 91.4094L149.659 97.2639C149.659 97.2639 158.226 98.1419 164.196 100.021C165.513 100.403 166.784 100.931 167.985 101.593C172.965 104.568 179.398 113.009 183.096 128.439C186.794 143.87 190.57 167.662 194.509 177.469C198.448 187.275 205.28 189.364 207.612 194.427C209.945 199.49 207.61 208.343 207.61 208.343Z" fill="url(#paint12_linear_417_599)"/>
<path d="M141.787 253.363C141.683 253.363 141.583 253.322 141.51 253.249C141.436 253.175 141.394 253.076 141.394 252.972C141.394 252.726 141.394 252.48 141.394 252.236C140.964 216.071 132.607 185.52 129.863 175.482C129.42 173.863 129.1 172.694 128.953 172.034C124.006 149.677 121.692 129.721 120.455 119C120.119 116.096 119.852 113.803 119.624 112.186C118.523 104.429 118.458 99.4601 118.458 99.4103C118.457 99.3582 118.467 99.3066 118.486 99.2583C118.506 99.21 118.534 99.166 118.571 99.129C118.608 99.0919 118.651 99.0625 118.699 99.0424C118.747 99.0223 118.799 99.012 118.851 99.012H146.247C146.351 99.012 146.451 99.0534 146.525 99.1271C146.599 99.2008 146.64 99.3008 146.64 99.4051C146.64 99.5093 146.599 99.6093 146.525 99.683C146.451 99.7567 146.351 99.7982 146.247 99.7982H119.254C119.416 103.911 119.797 108.012 120.394 112.084C120.625 113.711 120.892 116.015 121.228 118.916C122.47 129.621 124.781 149.551 129.711 171.869C129.852 172.508 130.169 173.672 130.61 175.275C133.361 185.336 141.739 215.95 142.172 252.225C142.172 252.472 142.172 252.718 142.172 252.964C142.172 253.016 142.162 253.067 142.143 253.115C142.124 253.163 142.095 253.206 142.059 253.243C142.022 253.28 141.979 253.309 141.932 253.329C141.884 253.349 141.833 253.36 141.781 253.36L141.787 253.363Z" fill="#C5E0E2"/>
<path d="M126.621 108.742C127.699 108.742 128.573 107.868 128.573 106.79C128.573 105.712 127.699 104.837 126.621 104.837C125.543 104.837 124.669 105.712 124.669 106.79C124.669 107.868 125.543 108.742 126.621 108.742Z" fill="#308B85"/>
<path d="M151.132 107.804C152.211 107.804 153.085 106.93 153.085 105.852C153.085 104.774 152.211 103.899 151.132 103.899C150.054 103.899 149.18 104.774 149.18 105.852C149.18 106.93 150.054 107.804 151.132 107.804Z" fill="#308B85"/>
<path d="M131.593 134.019C132.671 134.019 133.545 133.144 133.545 132.066C133.545 130.988 132.671 130.114 131.593 130.114C130.514 130.114 129.64 130.988 129.64 132.066C129.64 133.144 130.514 134.019 131.593 134.019Z" fill="#308B85"/>
<path d="M155.579 133.083C156.658 133.083 157.532 132.209 157.532 131.131C157.532 130.052 156.658 129.178 155.579 129.178C154.501 129.178 153.627 130.052 153.627 131.131C153.627 132.209 154.501 133.083 155.579 133.083Z" fill="#308B85"/>
<path d="M138.126 164.578C139.204 164.578 140.078 163.704 140.078 162.625C140.078 161.547 139.204 160.673 138.126 160.673C137.048 160.673 136.174 161.547 136.174 162.625C136.174 163.704 137.048 164.578 138.126 164.578Z" fill="#308B85"/>
<path d="M160.844 162.059C161.922 162.059 162.797 161.185 162.797 160.107C162.797 159.029 161.922 158.155 160.844 158.155C159.766 158.155 158.892 159.029 158.892 160.107C158.892 161.185 159.766 162.059 160.844 162.059Z" fill="#308B85"/>
<path d="M146.578 194.102C147.656 194.102 148.53 193.228 148.53 192.15C148.53 191.071 147.656 190.197 146.578 190.197C145.499 190.197 144.625 191.071 144.625 192.15C144.625 193.228 145.499 194.102 146.578 194.102Z" fill="#308B85"/>
<path d="M167.199 191.586C168.277 191.586 169.152 190.712 169.152 189.634C169.152 188.556 168.277 187.681 167.199 187.681C166.121 187.681 165.247 188.556 165.247 189.634C165.247 190.712 166.121 191.586 167.199 191.586Z" fill="#308B85"/>
<path d="M151.696 228.115C152.774 228.115 153.648 227.241 153.648 226.163C153.648 225.085 152.774 224.211 151.696 224.211C150.617 224.211 149.743 225.085 149.743 226.163C149.743 227.241 150.617 228.115 151.696 228.115Z" fill="#308B85"/>
<path d="M173.88 225.597C174.958 225.597 175.832 224.723 175.832 223.645C175.832 222.566 174.958 221.692 173.88 221.692C172.801 221.692 171.927 222.566 171.927 223.645C171.927 224.723 172.801 225.597 173.88 225.597Z" fill="#308B85"/>
<path d="M207.61 208.343C201.179 219.997 190.893 224.328 187.596 224.258C184.509 224.182 183.749 221.776 183.665 221.477V221.446C181.521 200.559 178.439 189.125 175.672 175.383C172.904 161.64 170.226 146.729 168.384 137.596C166.541 128.463 165.7 126.358 166.038 120.588C166.562 111.615 165.837 104.188 164.204 100.021C165.521 100.403 166.792 100.93 167.993 101.593C172.973 104.568 179.406 113.009 183.104 128.439C186.802 143.869 190.578 167.662 194.517 177.469C198.456 187.275 205.288 189.364 207.62 194.427C209.952 199.49 207.61 208.343 207.61 208.343Z" fill="url(#paint13_linear_417_599)"/>
<path d="M211.085 206.689C210.713 209.936 203.37 212.756 203.37 212.756C202.788 213.416 202.19 214.066 201.585 214.677C194.842 221.572 187.04 225.594 185.337 221.438C184.317 218.961 185.536 215.122 187.549 211.364C188.007 210.502 188.513 209.642 189.037 208.806C190.326 206.76 191.775 204.818 193.369 202.999C198.042 197.739 203.59 194.613 206.302 195.514C206.522 195.594 206.729 195.708 206.913 195.853C209.088 197.517 211.425 203.738 211.085 206.689Z" fill="url(#paint14_linear_417_599)"/>
<path d="M235.569 219.21C235.331 220.861 232.12 222.52 230.199 218.047C229.004 215.266 228.26 212.947 228.26 212.947C228.26 212.947 219.612 213.979 211.978 213.4C202.806 213.82 203.977 215.916 202.303 215.041C202.153 214.962 201.91 214.842 201.585 214.684C200.093 213.961 196.946 212.488 193.935 211.089L189.032 208.814C190.321 206.768 191.769 204.826 193.364 203.007C198.036 197.747 203.584 194.621 206.297 195.522L206.907 195.86C209.507 197.304 212.977 199.267 215.293 200.596L217.804 202.029C217.987 202.147 218.708 202.304 219.699 202.475C222.196 202.905 226.402 203.431 227.954 203.704C230.121 204.084 232.212 204.616 233.163 208.421C234.115 212.226 235.886 217.004 235.569 219.21Z" fill="#F2BA70"/>
<path d="M262.413 231.847L246.411 228.862C235.688 226.871 223.064 224.53 220.425 224.082C215.666 223.275 200.786 221.527 198.563 219.148C196.071 216.48 201.153 211.988 206.719 212.399C208.91 212.562 218.774 214.189 229.364 216.005C229.608 216.634 229.888 217.316 230.2 218.052C232.121 222.526 235.331 220.867 235.57 219.216C235.637 218.494 235.596 217.766 235.449 217.056C241.102 218.036 246.595 219.001 250.89 219.758C255.974 220.657 259.376 221.265 259.376 221.265L262.413 231.847Z" fill="url(#paint15_linear_417_599)"/>
<path d="M183.657 221.836C183.559 221.836 183.466 221.8 183.393 221.734C183.321 221.669 183.276 221.579 183.266 221.482C181.584 205.111 179.304 194.445 177.097 184.13C176.497 181.321 175.876 178.42 175.281 175.461C173.774 167.972 172.278 160.057 170.957 153.073C169.864 147.289 168.829 141.825 167.993 137.672C167.786 136.65 167.597 135.717 167.422 134.857C166.033 128.043 165.564 125.758 165.64 120.58C165.641 120.476 165.683 120.378 165.757 120.305C165.83 120.233 165.93 120.192 166.033 120.192C166.085 120.193 166.135 120.203 166.183 120.224C166.23 120.244 166.273 120.274 166.309 120.311C166.345 120.348 166.374 120.391 166.393 120.439C166.412 120.487 166.421 120.539 166.421 120.59C166.347 125.682 166.811 127.954 168.187 134.7C168.363 135.562 168.554 136.495 168.758 137.517C169.597 141.676 170.632 147.14 171.725 152.926C173.035 159.908 174.542 167.82 176.049 175.307C176.644 178.26 177.265 181.161 177.865 183.955C180.077 194.291 182.362 204.978 184.047 221.391C184.053 221.442 184.048 221.494 184.033 221.544C184.018 221.594 183.994 221.64 183.961 221.68C183.929 221.72 183.889 221.753 183.843 221.778C183.797 221.803 183.747 221.818 183.696 221.823L183.657 221.836Z" fill="#C5E0E2"/>
<path d="M181.566 137.202C181.566 137.202 168.701 152.046 166.722 157.835C164.115 165.461 167.907 168.826 167.834 170.516C167.771 172.002 155.957 184.293 145.144 195.493C139.415 201.427 133.97 207.05 130.699 210.604L137.775 216.86C137.775 216.86 143.582 209.338 150.372 200.577C159.712 188.523 170.915 174.135 171.416 173.758C172.283 173.108 178.311 177.191 185.043 172.162C192.449 166.622 199.072 156.144 201.671 152.318L181.566 137.202ZM175.163 157.077C174.898 157.078 174.641 156.985 174.438 156.815C174.202 156.622 174.054 156.344 174.024 156.041C173.994 155.739 174.085 155.436 174.278 155.201L179.98 148.248C180.173 148.013 180.451 147.865 180.754 147.835C181.056 147.805 181.358 147.897 181.593 148.09C181.828 148.283 181.977 148.561 182.007 148.864C182.036 149.166 181.945 149.468 181.752 149.703L176.049 156.65C175.943 156.783 175.808 156.891 175.655 156.964C175.502 157.038 175.334 157.077 175.163 157.077ZM178.083 162.764C177.866 162.765 177.652 162.704 177.469 162.589C177.285 162.473 177.138 162.307 177.045 162.11C176.952 161.914 176.917 161.695 176.944 161.48C176.971 161.264 177.059 161.06 177.197 160.893L186.128 150.012C186.224 149.896 186.341 149.799 186.473 149.728C186.606 149.657 186.751 149.613 186.901 149.598C187.051 149.584 187.202 149.598 187.346 149.642C187.49 149.685 187.624 149.757 187.74 149.852C187.856 149.948 187.953 150.065 188.024 150.197C188.095 150.33 188.139 150.475 188.154 150.625C188.169 150.775 188.154 150.926 188.11 151.07C188.067 151.214 187.995 151.348 187.9 151.464L178.969 162.347C178.861 162.478 178.726 162.583 178.573 162.655C178.419 162.728 178.252 162.765 178.083 162.764ZM185.117 164.101C184.924 164.336 184.646 164.484 184.343 164.514C184.041 164.544 183.739 164.452 183.504 164.259C183.269 164.066 183.12 163.788 183.09 163.486C183.061 163.183 183.152 162.881 183.345 162.646L189.048 155.699C189.241 155.464 189.519 155.315 189.821 155.286C190.124 155.256 190.426 155.347 190.661 155.54C190.896 155.733 191.044 156.012 191.074 156.314C191.104 156.617 191.012 156.918 190.819 157.153L185.117 164.101Z" fill="url(#paint16_linear_417_599)"/>
<path d="M178.591 13.052L172.996 39.2061L172.637 39.2558L172.409 39.2847L172.074 39.3266L171.812 39.3581L171.497 39.3921L170.669 39.4734C169.652 39.5651 168.528 39.6306 167.299 39.6621H166.859C162.524 39.7407 156.919 39.3659 150.003 38.0058L149.117 37.8302L147.739 37.5498L146.834 37.3611L146.106 37.2065L145.582 37.0912C144.883 36.9392 144.194 36.7854 143.514 36.63L142.568 36.4098L142.026 36.2788L141.541 36.1609L140.663 35.9434C139.376 35.6158 138.15 35.283 136.976 34.9396L136.216 34.7143L136.079 34.6723L135.372 34.4522L135.288 34.426L134.47 34.1639C133.998 34.0093 133.537 33.8495 133.084 33.6896L132.513 33.4826C132.109 33.3384 131.726 33.1864 131.323 33.0371L130.636 32.775L129.997 32.5129C129.239 32.1932 128.504 31.8621 127.793 31.5197C127.641 31.4489 127.489 31.3729 127.339 31.2996L127.004 31.1292C126.579 30.9143 126.162 30.6942 125.751 30.4688L125.319 30.2277C124.653 29.8504 124.009 29.4599 123.369 29.0511C123.862 25.7517 124.344 22.6829 124.8 19.8788C124.868 19.4595 124.936 19.0481 125.002 18.6419C125.067 18.2357 125.135 17.8347 125.201 17.4416C125.266 17.0485 125.332 16.6554 125.395 16.2806L125.678 14.6061C125.754 14.1684 125.827 13.7386 125.901 13.3167C125.943 13.073 125.985 12.8293 126.026 12.5908C126.026 12.562 126.026 12.5357 126.026 12.5095C126.066 12.2973 126.1 12.0876 126.137 11.8832C126.259 11.1844 126.377 10.5178 126.49 9.88365L126.569 9.44601C126.608 9.22849 126.645 9.0136 126.684 8.80395C126.894 7.643 127.085 6.60522 127.253 5.69848C127.279 5.56483 127.303 5.43642 127.329 5.30538C127.355 5.17435 127.387 4.99091 127.415 4.83891C127.584 3.94259 127.978 3.10374 128.559 2.40072C129.14 1.6977 129.89 1.15345 130.738 0.818838C131.139 0.661924 131.557 0.552852 131.983 0.493881C144.185 -1.17547 165.527 1.58145 175.884 7.18177C176.911 7.73726 177.73 8.60996 178.219 9.66944C178.708 10.7289 178.842 11.9183 178.599 13.0599L178.591 13.052Z" fill="url(#paint17_linear_417_599)"/>
<path d="M132.387 33.8418H132.358C132.254 33.8344 132.157 33.7861 132.089 33.7075C132.021 33.6289 131.986 33.5264 131.993 33.4225C132.704 23.1391 135.22 10.2979 135.246 10.1695C135.254 10.1169 135.272 10.0664 135.3 10.0212C135.328 9.97588 135.365 9.93672 135.408 9.90607C135.451 9.87542 135.501 9.85391 135.553 9.84284C135.605 9.83177 135.658 9.83137 135.711 9.84166C135.763 9.85195 135.812 9.87273 135.856 9.90273C135.9 9.93273 135.938 9.97132 135.966 10.0162C135.995 10.061 136.014 10.1112 136.022 10.1637C136.031 10.2162 136.029 10.2699 136.016 10.3215C135.99 10.4499 133.485 23.2413 132.777 33.4749C132.77 33.5741 132.726 33.6671 132.654 33.7352C132.582 33.8033 132.486 33.8414 132.387 33.8418Z" fill="#C5E0E2"/>
<path d="M142.903 36.8945H142.864C142.76 36.8839 142.665 36.8327 142.599 36.7521C142.534 36.6716 142.502 36.5682 142.513 36.4647C142.901 32.5835 144.203 19.3414 144.732 11.9276C144.74 11.8233 144.788 11.7262 144.867 11.6577C144.946 11.5891 145.049 11.5547 145.153 11.562C145.257 11.5693 145.354 11.6177 145.423 11.6966C145.491 11.7755 145.526 11.8784 145.519 11.9826C144.994 19.4069 143.684 32.6569 143.299 36.5407C143.289 36.6384 143.243 36.729 143.17 36.7945C143.096 36.8599 143.001 36.8956 142.903 36.8945Z" fill="#C5E0E2"/>
<path d="M152.259 38.8263H152.196C152.093 38.8096 152.001 38.7527 151.94 38.6682C151.879 38.5837 151.854 38.4784 151.871 38.3756C152.395 35.0316 153.706 25.7965 154.193 12.3316C154.195 12.28 154.207 12.2292 154.228 12.1822C154.25 12.1353 154.281 12.093 154.318 12.0578C154.356 12.0227 154.401 11.9953 154.449 11.9773C154.497 11.9593 154.549 11.951 154.601 11.9529C154.652 11.9548 154.703 11.9668 154.75 11.9883C154.797 12.0098 154.839 12.0404 154.874 12.0782C154.909 12.1161 154.937 12.1605 154.955 12.2089C154.973 12.2573 154.981 12.3088 154.979 12.3604C154.489 25.8698 153.184 35.1417 152.647 38.4987C152.631 38.5904 152.584 38.6736 152.513 38.7335C152.442 38.7935 152.352 38.8264 152.259 38.8263Z" fill="#C5E0E2"/>
<path d="M160.611 39.8742C160.583 39.8771 160.555 39.8771 160.527 39.8742C160.477 39.863 160.429 39.842 160.387 39.8124C160.344 39.7828 160.308 39.7451 160.281 39.7015C160.253 39.658 160.234 39.6094 160.225 39.5585C160.216 39.5076 160.217 39.4555 160.228 39.4051C161.117 35.3588 162.791 26.75 164.044 14.5719C164.049 14.5202 164.065 14.4702 164.089 14.4245C164.114 14.3789 164.148 14.3385 164.188 14.3058C164.228 14.2731 164.274 14.2486 164.324 14.2338C164.374 14.2189 164.426 14.214 164.478 14.2194C164.529 14.2247 164.579 14.2402 164.625 14.2648C164.671 14.2895 164.711 14.323 164.744 14.3632C164.777 14.4035 164.801 14.4498 164.816 14.4996C164.831 14.5493 164.836 14.6015 164.83 14.6531C163.575 26.8705 161.89 35.5108 160.999 39.5754C160.977 39.6618 160.928 39.7383 160.857 39.7926C160.787 39.8468 160.7 39.8756 160.611 39.8742Z" fill="#C5E0E2"/>
<path d="M169.277 39.9712C169.219 39.9713 169.161 39.9583 169.109 39.9333C169.056 39.9083 169.01 39.8719 168.973 39.8268C168.936 39.7816 168.91 39.7288 168.896 39.6722C168.882 39.6156 168.88 39.5566 168.892 39.4995C169.859 34.7824 171.251 26.965 172.315 16.5269C172.325 16.4227 172.377 16.327 172.459 16.2609C172.54 16.1948 172.644 16.1637 172.748 16.1745C172.853 16.1852 172.948 16.237 173.014 16.3183C173.081 16.3997 173.112 16.5039 173.101 16.6082C172.024 27.0908 170.637 34.9212 169.668 39.6699C169.647 39.7571 169.597 39.8346 169.526 39.8894C169.455 39.9442 169.367 39.9731 169.277 39.9712Z" fill="#C5E0E2"/>
<path d="M154.37 65.0038C154.658 63.9063 154.294 62.8596 153.556 62.6661C152.818 62.4725 151.986 63.2054 151.698 64.3029C151.411 65.4005 151.775 66.4472 152.513 66.6407C153.251 66.8343 154.082 66.1014 154.37 65.0038Z" fill="#654B1E"/>
<path d="M166.972 64.111C167.233 63.1142 166.903 62.1638 166.233 61.9883C165.564 61.8127 164.81 62.4784 164.548 63.4752C164.287 64.472 164.617 65.4223 165.287 65.5979C165.956 65.7735 166.71 65.1077 166.972 64.111Z" fill="#654B1E"/>
<path d="M144.332 61.1356C144.222 61.1358 144.116 61.1018 144.027 61.0384C143.937 60.9749 143.87 60.8852 143.835 60.7818C143.799 60.6784 143.797 60.5664 143.828 60.4616C143.86 60.3569 143.923 60.2645 144.009 60.1974C149.196 56.138 156.29 56.822 158.161 58.7325C158.258 58.8319 158.312 58.9658 158.31 59.1049C158.309 59.244 158.252 59.3768 158.153 59.4741C158.054 59.5714 157.92 59.6253 157.78 59.6238C157.641 59.6223 157.509 59.5656 157.411 59.4662C156.064 58.0904 149.518 57.2177 144.657 61.0229C144.564 61.096 144.45 61.1357 144.332 61.1356Z" fill="#654B1E"/>
<path d="M163.866 59.0837C163.756 59.0843 163.648 59.05 163.559 58.9859C163.469 58.9218 163.402 58.8311 163.367 58.7266C163.332 58.6221 163.33 58.5092 163.363 58.4039C163.396 58.2987 163.461 58.2064 163.549 58.1403C165.627 56.5679 167.637 56.0909 168.41 56.0437C168.549 56.0375 168.685 56.0867 168.788 56.1806C168.891 56.2745 168.952 56.4053 168.958 56.5443C168.964 56.6833 168.915 56.8191 168.821 56.9218C168.727 57.0245 168.597 57.0857 168.457 57.092C167.69 57.1261 165.918 57.6554 164.181 58.9658C164.092 59.0385 163.981 59.08 163.866 59.0837Z" fill="#654B1E"/>
<path d="M161.644 75.2295C160.507 75.1987 159.42 74.7585 158.583 73.99C158.544 73.9556 158.512 73.9139 158.49 73.8673C158.467 73.8206 158.454 73.77 158.451 73.7183C158.448 73.6666 158.455 73.6148 158.472 73.5659C158.489 73.5169 158.516 73.4718 158.55 73.4331C158.584 73.3944 158.626 73.3628 158.673 73.3402C158.719 73.3176 158.77 73.3044 158.822 73.3014C158.873 73.2983 158.925 73.3055 158.974 73.3225C159.023 73.3395 159.068 73.3659 159.107 73.4003C160.208 74.3726 161.662 74.7107 162.723 74.2206C163.638 73.8065 164.144 72.8657 164.141 71.5659C164.141 69.7314 163.468 68.4211 162.875 67.2523C162.472 66.4661 162.123 65.7769 162.055 65.0641C162.05 65.0124 162.056 64.9604 162.071 64.9108C162.086 64.8613 162.111 64.8153 162.144 64.7754C162.211 64.6948 162.307 64.644 162.411 64.6343C162.516 64.6245 162.62 64.6566 162.7 64.7235C162.781 64.7903 162.832 64.8864 162.841 64.9907C162.894 65.5541 163.213 66.1752 163.58 66.8959C164.183 68.0752 164.933 69.5454 164.933 71.5685C164.933 73.1697 164.246 74.3988 163.051 74.9387C162.608 75.1352 162.128 75.2344 161.644 75.2295Z" fill="#BB8A52"/>
<path d="M156.334 80.8639C154.814 80.8639 151.924 80.5022 150.121 77.9969C150.08 77.941 150.052 77.8777 150.036 77.8106C150.02 77.7435 150.018 77.674 150.029 77.606C150.04 77.538 150.064 77.4728 150.1 77.4142C150.137 77.3556 150.184 77.3047 150.24 77.2644C150.296 77.2242 150.359 77.1953 150.426 77.1795C150.493 77.1637 150.563 77.1613 150.631 77.1723C150.699 77.1834 150.764 77.2078 150.823 77.244C150.881 77.2803 150.932 77.3277 150.972 77.3837C152.914 80.0829 156.418 79.8497 157.1 79.7763C157.239 79.7614 157.378 79.8023 157.487 79.89C157.595 79.9777 157.665 80.1051 157.68 80.2441C157.695 80.3831 157.654 80.5224 157.566 80.6312C157.479 80.7401 157.351 80.8096 157.212 80.8246C156.92 80.8531 156.627 80.8663 156.334 80.8639Z" fill="#BB8A52"/>
<path d="M128.618 66.1541C128.549 66.1542 128.481 66.136 128.421 66.1015C128.362 66.067 128.312 66.0174 128.277 65.9576C125.597 61.3085 121.726 60.6036 120.261 60.9783C120.211 60.9916 120.159 60.9949 120.108 60.988C120.057 60.9812 120.007 60.9643 119.963 60.9384C119.918 60.9125 119.879 60.878 119.848 60.837C119.816 60.796 119.793 60.7491 119.78 60.6992C119.767 60.6493 119.763 60.5973 119.77 60.5462C119.777 60.495 119.794 60.4457 119.82 60.401C119.846 60.3563 119.88 60.3172 119.921 60.2859C119.962 60.2546 120.009 60.2316 120.059 60.2184C122.011 59.6942 126.155 60.6875 128.969 65.5514C129.004 65.6112 129.022 65.679 129.022 65.748C129.022 65.817 129.004 65.8848 128.969 65.9446C128.935 66.0044 128.885 66.054 128.825 66.0884C128.765 66.1229 128.698 66.1411 128.629 66.141L128.618 66.1541Z" fill="#BB8A52"/>
<path d="M124.433 66.335C124.002 66.3557 123.573 66.2679 123.184 66.0798C122.796 65.8916 122.461 65.609 122.211 65.2579C121.907 64.8007 121.75 64.2616 121.761 63.7128C121.771 63.1639 121.949 62.6315 122.271 62.1865C122.915 61.3322 123.99 61.0753 125.216 61.4868C125.315 61.5215 125.396 61.5941 125.441 61.6884C125.486 61.7828 125.492 61.8912 125.457 61.9899C125.423 62.0886 125.35 62.1695 125.256 62.2147C125.161 62.2599 125.053 62.2658 124.954 62.2311C124.058 61.9297 123.322 62.0817 122.887 62.6582C122.665 62.9719 122.542 63.3451 122.535 63.7293C122.528 64.1134 122.637 64.4908 122.847 64.8124C123.337 65.5278 124.273 65.7296 125.484 65.3837C125.581 65.3622 125.684 65.3788 125.77 65.4301C125.856 65.4815 125.919 65.5637 125.946 65.66C125.974 65.7562 125.963 65.8594 125.917 65.9483C125.871 66.0372 125.793 66.1052 125.699 66.1384C125.288 66.2619 124.862 66.328 124.433 66.335Z" fill="#BB8A52"/>
<path d="M117.682 83.3196C117.31 84.6535 116.896 86.0215 116.461 87.4078C110.837 86.5063 111.757 83.6498 117.682 83.3196Z" fill="url(#paint18_linear_417_599)"/>
<path d="M83.8706 206.904C75.6837 215.169 66.632 221.388 62.2241 216.98C57.8162 212.572 62.5386 200.766 69.5435 192.658C76.5485 184.55 84.421 182.817 87.2539 184.707L83.8706 206.904Z" fill="url(#paint19_linear_417_599)"/>
<path d="M95.6346 190.758C93.8001 189.448 92.0915 188.203 90.692 187.194C92.191 185.111 90.5793 181.885 87.8093 177.993C94.8169 159.911 99.3559 150.269 100.166 141.438C100.481 138.132 100.481 134.803 100.166 131.498C100.952 132.37 102.438 135.358 102.718 141.718C102.97 147.342 96.4706 175.176 95.6346 190.758Z" fill="url(#paint20_linear_417_599)"/>
<path d="M144.748 222.732C143.781 224.533 142.088 224.776 137.169 222.038C139.088 225.395 135.699 229.064 132.541 226.967C133.327 229.098 130.825 232.416 126.616 229.934C126.616 229.934 126.071 231.632 122.022 230.555C117.973 229.478 105.381 221.951 103.135 220.4C100.889 218.848 89.1067 212.554 86.2345 210.814C85.6055 210.431 84.1379 209.605 82.2039 208.547C78.7971 206.665 73.962 204.05 69.9786 201.888C67.9817 200.803 66.1944 199.83 64.905 199.123C66.259 196.836 67.8121 194.672 69.5462 192.658C75.8646 185.346 82.8853 183.223 86.2816 184.272C86.6268 184.372 86.9553 184.524 87.2565 184.72C87.2565 184.72 108.746 200.31 109.666 200.682C110.586 201.054 123.623 199.982 125.518 199.817C127.413 199.652 129.14 200.929 131.807 202.823C134.475 204.718 139.869 206.277 139.869 206.277L134.344 210.607C134.344 210.607 140.393 215.822 142.822 217.921C145.251 220.02 145.553 221.239 144.748 222.732Z" fill="#F2BA70"/>
<path d="M150.382 200.58C145.691 206.634 141.472 212.095 139.308 214.894L134.328 210.607C134.328 210.607 133.613 210.083 132.255 208.927C133.372 207.735 134.651 206.39 136.042 204.938C138.755 202.1 141.902 198.848 145.138 195.504C144.271 197.493 148.53 201.55 150.382 200.58Z" fill="url(#paint21_linear_417_599)"/>
<path d="M134.344 211C134.259 211 134.176 210.973 134.108 210.921C134.093 210.921 132.486 209.695 129.588 207.124C129.51 207.055 129.463 206.957 129.457 206.853C129.451 206.749 129.487 206.646 129.556 206.568C129.626 206.491 129.723 206.444 129.828 206.438C129.932 206.432 130.034 206.467 130.112 206.537C132.995 209.084 134.567 210.282 134.583 210.292C134.649 210.342 134.698 210.411 134.722 210.49C134.747 210.568 134.746 210.653 134.72 210.731C134.694 210.809 134.644 210.878 134.577 210.926C134.51 210.974 134.429 211 134.347 211H134.344Z" fill="#BB8A52"/>
<path d="M137.169 222.431C137.088 222.431 137.008 222.406 136.941 222.358C133.134 219.659 128.178 215.874 128.128 215.838C128.084 215.807 128.047 215.769 128.018 215.724C127.99 215.679 127.971 215.628 127.963 215.576C127.954 215.523 127.957 215.469 127.97 215.417C127.983 215.366 128.006 215.317 128.038 215.275C128.071 215.233 128.112 215.197 128.158 215.171C128.204 215.145 128.256 215.129 128.309 215.123C128.362 215.117 128.415 215.122 128.466 215.138C128.517 215.154 128.564 215.179 128.605 215.214C128.655 215.251 133.597 219.027 137.395 221.718C137.462 221.767 137.513 221.835 137.539 221.914C137.565 221.993 137.566 222.079 137.54 222.158C137.515 222.237 137.465 222.306 137.398 222.355C137.331 222.405 137.25 222.431 137.167 222.431H137.169Z" fill="#BB8A52"/>
<path d="M132.541 227.36C132.469 227.36 132.398 227.341 132.337 227.303C132.295 227.279 128.225 224.797 125.261 222.635C125.218 222.606 125.18 222.568 125.152 222.523C125.123 222.479 125.104 222.429 125.095 222.377C125.086 222.325 125.087 222.272 125.099 222.221C125.112 222.169 125.134 222.121 125.165 222.078C125.196 222.036 125.235 222 125.281 221.973C125.326 221.946 125.376 221.928 125.429 221.921C125.481 221.914 125.534 221.917 125.585 221.931C125.636 221.945 125.684 221.969 125.725 222.001C128.652 224.142 132.696 226.606 132.735 226.632C132.808 226.677 132.865 226.744 132.896 226.824C132.928 226.903 132.932 226.991 132.909 227.074C132.886 227.156 132.836 227.229 132.768 227.28C132.7 227.332 132.617 227.36 132.531 227.36H132.541Z" fill="#BB8A52"/>
<path d="M126.616 230.325C126.55 230.324 126.485 230.307 126.427 230.275C124.727 229.339 122.528 227.767 122.434 227.701C122.349 227.641 122.292 227.549 122.275 227.446C122.258 227.343 122.282 227.237 122.343 227.152C122.404 227.068 122.496 227.01 122.599 226.994C122.702 226.977 122.807 227.001 122.892 227.062C122.916 227.078 125.149 228.674 126.807 229.586C126.883 229.628 126.943 229.694 126.977 229.774C127.011 229.854 127.018 229.942 126.997 230.027C126.975 230.111 126.926 230.185 126.858 230.239C126.79 230.292 126.706 230.321 126.619 230.322L126.616 230.325Z" fill="#BB8A52"/>
<path d="M86.2816 184.259C78.9569 186.24 72.442 195.037 69.9786 201.888C67.9817 200.803 66.1944 199.831 64.905 199.123C66.259 196.836 67.8121 194.672 69.5462 192.658C75.8646 185.346 82.8853 183.218 86.2816 184.259Z" fill="#D39E5F"/>
<path d="M230.176 225.906C229.057 227.652 226.932 230.458 224.793 230.545C223.933 230.607 223.072 230.426 222.309 230.024C221.546 229.622 220.91 229.015 220.475 228.27C217.191 230.702 215.362 227.235 215.362 227.235C212.579 228.488 211.339 226.032 211.339 226.032C209.837 226.509 208.157 226.05 207.584 224.769C206.758 222.934 206.396 219.743 207.075 217.748C208.037 214.915 211.119 214.944 211.339 218.233C212.311 216.024 215.142 216.102 215.532 219.019C217.613 215.84 221.072 216.828 221.035 219.879C223.687 216.333 226.701 219.182 225.189 221.871C225.084 222.059 225.006 222.261 224.956 222.471C224.881 222.589 224.827 222.719 224.796 222.856C224.688 223.518 224.688 224.193 224.796 224.855C224.796 224.855 227.736 225.448 230.176 225.906Z" fill="#F2BA70"/>
<path d="M218.221 229.528C217.992 229.528 217.763 229.502 217.54 229.452C216.326 229.174 215.543 228.223 215.205 227.725C212.919 228.576 211.612 227.13 211.163 226.49C209.478 226.899 207.822 226.26 207.233 224.918C206.41 223.083 205.975 219.766 206.708 217.609C206.743 217.51 206.816 217.429 206.91 217.384C207.004 217.339 207.113 217.333 207.212 217.368C207.31 217.403 207.391 217.475 207.436 217.569C207.482 217.664 207.487 217.772 207.453 217.871C206.803 219.787 207.191 222.9 207.948 224.606C208.407 225.631 209.845 226.092 211.226 225.654C211.315 225.626 211.411 225.631 211.497 225.667C211.583 225.703 211.653 225.768 211.695 225.851C211.74 225.935 212.809 227.947 215.205 226.87C215.296 226.829 215.399 226.825 215.493 226.858C215.588 226.89 215.666 226.958 215.713 227.046C215.713 227.046 216.444 228.393 217.723 228.681C218.509 228.857 219.35 228.61 220.247 227.947C220.33 227.885 220.435 227.859 220.539 227.874C220.642 227.889 220.735 227.945 220.797 228.029C220.859 228.112 220.886 228.217 220.87 228.321C220.855 228.424 220.799 228.517 220.716 228.579C219.861 229.213 219.028 229.528 218.221 229.528Z" fill="#BB8A52"/>
<path d="M221.03 220.277C220.978 220.276 220.927 220.265 220.88 220.245C220.833 220.225 220.79 220.195 220.754 220.158C220.718 220.121 220.689 220.077 220.67 220.029C220.651 219.981 220.641 219.93 220.642 219.879C220.655 218.72 220.094 217.827 219.177 217.546C218.058 217.205 216.758 217.868 215.862 219.239C215.818 219.306 215.755 219.358 215.681 219.388C215.606 219.418 215.525 219.424 215.447 219.407C215.369 219.389 215.298 219.348 215.244 219.289C215.19 219.23 215.155 219.156 215.144 219.077C214.995 217.95 214.431 217.211 213.635 217.098C212.838 216.985 212.091 217.509 211.703 218.39C211.661 218.486 211.583 218.561 211.485 218.598C211.388 218.636 211.28 218.634 211.184 218.592C211.089 218.55 211.014 218.471 210.976 218.374C210.938 218.277 210.94 218.168 210.982 218.073C211.507 216.865 212.623 216.157 213.742 216.317C214.481 216.422 215.314 216.957 215.723 218.123C216.771 216.93 218.16 216.414 219.392 216.794C220.624 217.174 221.434 218.366 221.413 219.886C221.412 219.988 221.372 220.086 221.3 220.159C221.229 220.232 221.132 220.274 221.03 220.277Z" fill="#BB8A52"/>
<path d="M211.339 226.425C211.271 226.426 211.204 226.408 211.145 226.375C211.086 226.342 211.036 226.294 211.001 226.236C209.837 224.308 209.83 220.332 210.988 218.055C211.01 218.006 211.041 217.963 211.08 217.927C211.119 217.891 211.166 217.863 211.216 217.845C211.266 217.827 211.319 217.82 211.372 217.824C211.426 217.827 211.477 217.841 211.525 217.866C211.572 217.89 211.614 217.923 211.648 217.964C211.682 218.005 211.708 218.053 211.723 218.104C211.738 218.155 211.743 218.208 211.737 218.261C211.731 218.314 211.714 218.365 211.688 218.411C210.671 220.413 210.663 224.156 211.674 225.83C211.711 225.89 211.73 225.958 211.732 226.028C211.733 226.097 211.716 226.166 211.681 226.227C211.647 226.288 211.598 226.339 211.537 226.374C211.477 226.409 211.409 226.428 211.339 226.428V226.425Z" fill="#BB8A52"/>
<path d="M215.362 227.625C215.303 227.625 215.246 227.612 215.193 227.587C215.141 227.562 215.094 227.526 215.058 227.481C213.747 225.864 213.818 220.93 215.199 218.809C215.258 218.726 215.347 218.669 215.447 218.649C215.547 218.63 215.65 218.651 215.736 218.706C215.821 218.762 215.881 218.849 215.904 218.948C215.927 219.048 215.91 219.152 215.857 219.239C214.575 221.194 214.636 225.725 215.666 226.983C215.713 227.041 215.743 227.111 215.752 227.184C215.761 227.258 215.749 227.333 215.717 227.4C215.685 227.468 215.635 227.524 215.572 227.564C215.509 227.604 215.436 227.625 215.362 227.625Z" fill="#BB8A52"/>
<path d="M220.475 228.663C220.41 228.663 220.346 228.646 220.288 228.615C220.231 228.584 220.183 228.539 220.147 228.485C219.057 226.824 219.164 221.889 220.708 219.661C220.737 219.619 220.775 219.582 220.818 219.554C220.862 219.526 220.91 219.507 220.961 219.498C221.012 219.489 221.064 219.49 221.115 219.501C221.165 219.511 221.213 219.532 221.256 219.562C221.298 219.591 221.334 219.629 221.362 219.672C221.39 219.716 221.41 219.764 221.419 219.815C221.428 219.866 221.427 219.918 221.416 219.969C221.405 220.019 221.385 220.067 221.355 220.109C220.013 222.049 219.877 226.637 220.805 228.055C220.843 228.114 220.865 228.183 220.868 228.254C220.871 228.324 220.855 228.394 220.822 228.457C220.788 228.519 220.738 228.571 220.678 228.607C220.617 228.644 220.548 228.663 220.477 228.663H220.475Z" fill="#BB8A52"/>
<path d="M206.297 195.522C199.483 197.64 196.207 204.532 193.935 211.089L189.032 208.814C190.321 206.768 191.769 204.826 193.364 203.007C198.026 197.747 203.592 194.616 206.297 195.522Z" fill="#D39E5F"/>
<path d="M219.712 202.483C215.597 203.337 211.795 204.514 211.91 203.007C211.981 202.061 213.456 201.204 215.317 200.617L217.827 202.05C218 202.155 218.729 202.313 219.712 202.483Z" fill="#D39E5F"/>
<path d="M204.696 78.6889C205.303 78.6889 205.796 78.1961 205.796 77.5882C205.796 76.9803 205.303 76.4875 204.696 76.4875C204.088 76.4875 203.595 76.9803 203.595 77.5882C203.595 78.1961 204.088 78.6889 204.696 78.6889Z" fill="url(#paint22_linear_417_599)"/>
<path d="M221.324 78.6889C221.931 78.6889 222.424 78.1961 222.424 77.5882C222.424 76.9803 221.931 76.4875 221.324 76.4875C220.716 76.4875 220.223 76.9803 220.223 77.5882C220.223 78.1961 220.716 78.6889 221.324 78.6889Z" fill="url(#paint23_linear_417_599)"/>
<path d="M237.952 78.6889C238.559 78.6889 239.052 78.1961 239.052 77.5882C239.052 76.9803 238.559 76.4875 237.952 76.4875C237.344 76.4875 236.851 76.9803 236.851 77.5882C236.851 78.1961 237.344 78.6889 237.952 78.6889Z" fill="url(#paint24_linear_417_599)"/>
<path d="M254.58 78.6889C255.188 78.6889 255.68 78.1961 255.68 77.5882C255.68 76.9803 255.188 76.4875 254.58 76.4875C253.972 76.4875 253.479 76.9803 253.479 77.5882C253.479 78.1961 253.972 78.6889 254.58 78.6889Z" fill="url(#paint25_linear_417_599)"/>
<path d="M271.207 78.6889C271.815 78.6889 272.308 78.1961 272.308 77.5882C272.308 76.9803 271.815 76.4875 271.207 76.4875C270.6 76.4875 270.107 76.9803 270.107 77.5882C270.107 78.1961 270.6 78.6889 271.207 78.6889Z" fill="url(#paint26_linear_417_599)"/>
<path d="M319.336 133.542C316.251 134.013 314.791 130.455 315.266 130.116C315.74 129.778 317.1 130.355 316.723 129.574C316.345 128.793 315.266 125.879 316.248 125.643C317.231 125.407 317.706 128.017 318.046 127.643C318.387 127.268 319.708 126.626 319.881 128.219C320.054 129.812 320.761 129.44 321.191 129.1C321.621 128.759 322.218 133.101 319.336 133.542Z" fill="url(#paint27_linear_417_599)"/>
<path d="M332.748 180.535C334.425 182.561 337.793 181.531 337.638 180.69C337.484 179.848 337.9 180.006 338.781 179.877C339.661 179.749 340.78 179.091 340.353 178.554C339.926 178.016 338.794 178.606 339.08 178.216C339.365 177.825 341.375 177.167 341.176 176.449C340.995 175.773 338.241 176.994 338.215 176.604C338.189 176.213 338.409 174.911 337.748 174.769C336.661 174.507 335.515 177.235 335.282 177.028C335.049 176.821 335.128 175.763 334.695 175.718C333.571 175.571 331.831 179.434 332.748 180.535Z" fill="url(#paint28_linear_417_599)"/>
<path d="M284.974 203.146C282.374 198.245 280.857 192.925 280.713 187.566C280.569 182.207 279.497 181.871 276.858 181.845C275.603 181.845 276.357 170.804 271.742 171.855C268.598 172.573 266.687 180.674 270.477 188.816C270.477 188.816 268.453 187.833 268.294 189.51C268.134 191.188 269.604 194.733 277.02 200.947C282.225 205.31 287.948 205.612 287.948 205.612L284.974 203.146Z" fill="url(#paint29_linear_417_599)"/>
<path d="M327.224 166.855C327.732 167.288 326.784 170.915 328.401 170.356C330.017 169.798 333.38 167.531 332.491 166.855C331.603 166.179 330.107 165.65 330.342 165.354C330.578 165.057 332.46 163.97 331.312 162.793C330.164 161.617 327.546 161.792 325.869 163.055C324.192 164.318 323.558 166.541 324.192 167.558C325.368 169.431 326.86 166.535 327.224 166.855Z" fill="url(#paint30_linear_417_599)"/>
<path d="M326.579 149.229C326.781 148.466 326.841 147.853 326.579 147.693C325.793 147.187 325.099 148.039 324.425 152.961L325.057 153.223L325.172 152.961L325.586 153.317C325.586 153.317 328.828 150.922 328.857 149.336C328.886 147.751 327.41 147.656 326.579 149.229Z" fill="url(#paint31_linear_417_599)"/>
<path d="M325.34 151.729C326.616 152.491 325.803 154.462 324.43 156.184C323.057 157.906 317.42 163.427 311.448 160.22C305.475 157.012 305.918 151.262 307.687 147.059C309.456 142.855 311.969 142.247 313.57 143.191C316.063 144.656 314.278 151.797 316.809 152.78C322.693 155.062 324.079 150.974 325.34 151.729Z" fill="url(#paint32_linear_417_599)"/>
<path d="M323.138 157.945C323.069 157.945 323.001 157.927 322.942 157.893C320.583 156.533 320.874 153.734 321.165 153.141C321.186 153.093 321.217 153.048 321.255 153.012C321.294 152.975 321.34 152.947 321.389 152.928C321.439 152.91 321.493 152.902 321.546 152.905C321.599 152.907 321.651 152.921 321.699 152.944C321.747 152.968 321.789 153.001 321.824 153.041C321.859 153.081 321.885 153.128 321.901 153.179C321.917 153.23 321.922 153.283 321.917 153.336C321.911 153.389 321.895 153.441 321.87 153.487C321.757 153.718 321.325 156.058 323.332 157.211C323.407 157.255 323.466 157.321 323.499 157.401C323.532 157.481 323.538 157.57 323.516 157.654C323.493 157.737 323.444 157.811 323.375 157.864C323.306 157.917 323.222 157.945 323.135 157.945H323.138Z" fill="#ECB88B"/>
<path d="M319.055 160.725C318.982 160.725 318.91 160.704 318.848 160.665C318.221 160.274 317.711 159.72 317.372 159.063C317.034 158.405 316.88 157.668 316.927 156.931C316.961 156.13 317.207 155.353 317.642 154.68C318.076 154.007 318.683 153.462 319.398 153.102C319.492 153.056 319.6 153.048 319.699 153.082C319.798 153.115 319.879 153.186 319.925 153.28C319.971 153.373 319.979 153.481 319.945 153.58C319.912 153.679 319.841 153.761 319.747 153.807C319.157 154.105 318.658 154.555 318.301 155.11C317.943 155.666 317.74 156.307 317.713 156.967C317.67 157.566 317.791 158.165 318.065 158.699C318.338 159.234 318.754 159.682 319.265 159.997C319.337 160.042 319.392 160.109 319.423 160.189C319.453 160.268 319.457 160.355 319.434 160.437C319.41 160.519 319.361 160.591 319.293 160.643C319.226 160.694 319.143 160.722 319.058 160.723L319.055 160.725Z" fill="#ECB88B"/>
<path d="M314.346 161.533C314.25 161.534 314.156 161.499 314.084 161.436C313.002 160.49 312.554 158.716 312.944 156.918C313.148 155.887 313.629 154.93 314.335 154.151C315.041 153.372 315.945 152.799 316.951 152.494C317.049 152.47 317.152 152.485 317.24 152.535C317.327 152.585 317.392 152.667 317.421 152.763C317.45 152.86 317.441 152.964 317.395 153.054C317.35 153.143 317.271 153.212 317.176 153.246C316.306 153.512 315.523 154.009 314.913 154.685C314.303 155.361 313.888 156.19 313.712 157.083C313.382 158.606 313.73 160.081 314.6 160.841C314.661 160.894 314.704 160.964 314.723 161.042C314.743 161.12 314.738 161.202 314.709 161.277C314.681 161.352 314.63 161.416 314.563 161.462C314.497 161.507 314.418 161.531 314.338 161.53L314.346 161.533Z" fill="#ECB88B"/>
<path d="M307.569 156.962C307.538 156.966 307.506 156.966 307.475 156.962C307.374 156.937 307.287 156.874 307.233 156.785C307.179 156.696 307.162 156.589 307.186 156.488C308.277 152.012 311.277 149.936 315.633 150.618C315.737 150.634 315.831 150.691 315.893 150.776C315.955 150.862 315.981 150.968 315.964 151.072C315.948 151.177 315.891 151.27 315.806 151.332C315.72 151.394 315.614 151.42 315.51 151.404C311.56 150.778 308.945 152.602 307.949 156.685C307.924 156.766 307.874 156.836 307.805 156.887C307.737 156.937 307.654 156.963 307.569 156.962Z" fill="#ECB88B"/>
<path d="M307.116 149.035C307.044 149.035 306.975 149.016 306.914 148.979C306.853 148.943 306.803 148.89 306.769 148.828C306.735 148.765 306.719 148.694 306.723 148.623C306.726 148.552 306.749 148.483 306.788 148.424C308.017 146.59 309.492 145.542 311.057 145.369C312.517 145.214 314.021 145.846 315.407 147.203C315.446 147.239 315.478 147.281 315.5 147.329C315.522 147.377 315.534 147.429 315.535 147.482C315.537 147.534 315.528 147.587 315.509 147.636C315.49 147.685 315.461 147.73 315.424 147.768C315.388 147.805 315.344 147.835 315.295 147.856C315.247 147.876 315.194 147.887 315.142 147.887C315.089 147.887 315.037 147.876 314.988 147.855C314.94 147.835 314.896 147.804 314.86 147.766C313.646 146.587 312.365 146.034 311.138 146.16C309.815 146.299 308.536 147.237 307.44 148.87C307.404 148.921 307.355 148.963 307.298 148.992C307.242 149.021 307.179 149.036 307.116 149.035Z" fill="#ECB88B"/>
<path d="M314.359 206.299C315.614 207.255 318.518 205.203 317.86 204.438C317.202 203.673 315.903 201.01 317.957 198.749C320.012 196.487 324.865 196.815 325.119 198.238C325.374 199.661 324.755 200.03 323.285 201.815C321.815 203.599 323.248 206.139 324.635 206.82C326.021 207.502 329.011 208.524 331.784 203.379C334.556 198.235 334.192 190.137 328.283 187.475C322.373 184.812 314.836 190.428 312.97 195.392C311.104 200.355 312.679 205.022 314.359 206.299Z" fill="url(#paint33_linear_417_599)"/>
<path d="M331.514 204.273C331.437 204.273 331.361 204.25 331.297 204.208C331.233 204.165 331.182 204.105 331.152 204.034C330.912 203.473 330.559 202.967 330.115 202.549C329.671 202.131 329.145 201.808 328.571 201.602C326.999 201.041 325.269 201.119 323.754 201.82C323.661 201.859 323.556 201.86 323.461 201.824C323.367 201.788 323.29 201.717 323.247 201.625C323.203 201.534 323.197 201.429 323.229 201.333C323.261 201.237 323.329 201.157 323.419 201.11C325.128 200.32 327.079 200.233 328.851 200.868C329.525 201.111 330.142 201.49 330.662 201.981C331.183 202.473 331.597 203.066 331.878 203.725C331.904 203.785 331.914 203.85 331.908 203.915C331.902 203.98 331.88 204.042 331.845 204.096C331.809 204.15 331.76 204.195 331.703 204.226C331.645 204.257 331.581 204.273 331.516 204.273H331.514Z" fill="#ECB88B"/>
<path d="M324.726 198.075C324.655 198.075 324.585 198.056 324.524 198.019C324.463 197.983 324.413 197.93 324.38 197.868C324.346 197.805 324.33 197.735 324.333 197.664C324.337 197.593 324.359 197.524 324.399 197.465C326.149 194.812 329.291 193.921 333.49 194.891C333.542 194.9 333.592 194.92 333.637 194.949C333.682 194.978 333.72 195.016 333.749 195.061C333.779 195.105 333.799 195.155 333.809 195.208C333.818 195.26 333.817 195.314 333.805 195.366C333.793 195.418 333.771 195.467 333.739 195.51C333.708 195.553 333.668 195.59 333.622 195.617C333.576 195.644 333.525 195.661 333.472 195.668C333.419 195.675 333.365 195.671 333.314 195.656C330.631 195.038 327.025 194.922 325.056 197.897C325.021 197.952 324.972 197.997 324.914 198.028C324.856 198.059 324.792 198.075 324.726 198.075Z" fill="#ECB88B"/>
<path d="M322.365 197.504C322.268 197.504 322.173 197.467 322.101 197.401C322.029 197.335 321.984 197.245 321.975 197.147C321.576 192.941 325.227 188.122 329.208 187.598C329.312 187.584 329.417 187.613 329.501 187.677C329.584 187.741 329.638 187.836 329.652 187.94C329.666 188.044 329.637 188.149 329.573 188.233C329.509 188.316 329.414 188.37 329.31 188.384C325.769 188.848 322.402 193.319 322.758 197.079C322.768 197.183 322.736 197.286 322.67 197.366C322.603 197.446 322.508 197.496 322.405 197.506L322.365 197.504Z" fill="#ECB88B"/>
<path d="M319.579 198.041C319.521 198.041 319.463 198.028 319.409 198.002C319.356 197.977 319.31 197.94 319.273 197.894C317.051 195.124 317.142 189.828 319.446 187.954C319.527 187.888 319.63 187.857 319.734 187.868C319.838 187.879 319.933 187.93 319.999 188.011C320.064 188.092 320.095 188.196 320.084 188.3C320.074 188.404 320.022 188.499 319.941 188.564C317.962 190.176 317.931 194.964 319.886 197.401C319.933 197.459 319.962 197.529 319.97 197.602C319.979 197.676 319.966 197.751 319.934 197.818C319.902 197.884 319.852 197.941 319.789 197.98C319.726 198.02 319.654 198.041 319.579 198.041Z" fill="#ECB88B"/>
<path d="M317.674 198.956C316.031 198.956 313.628 197.824 312.621 195.549C312.599 195.501 312.587 195.45 312.584 195.398C312.582 195.346 312.59 195.293 312.609 195.244C312.627 195.195 312.655 195.15 312.691 195.112C312.726 195.074 312.769 195.044 312.817 195.022C312.865 195.001 312.917 194.989 312.969 194.988C313.021 194.987 313.073 194.997 313.122 195.016C313.17 195.035 313.215 195.064 313.252 195.101C313.29 195.137 313.319 195.181 313.339 195.229C314.304 197.404 316.807 198.397 318.109 198.128C318.16 198.117 318.212 198.117 318.263 198.126C318.313 198.136 318.362 198.155 318.405 198.184C318.448 198.212 318.485 198.249 318.514 198.291C318.543 198.334 318.564 198.382 318.574 198.433C318.585 198.483 318.585 198.536 318.576 198.586C318.566 198.637 318.546 198.685 318.518 198.729C318.49 198.772 318.453 198.809 318.41 198.838C318.368 198.867 318.32 198.888 318.269 198.898C318.073 198.937 317.874 198.957 317.674 198.956Z" fill="#ECB88B"/>
<path d="M315.098 202.91C314.852 202.91 314.607 202.882 314.367 202.826C313.337 202.588 312.454 201.875 311.807 200.766C311.779 200.722 311.76 200.672 311.751 200.62C311.742 200.568 311.745 200.514 311.757 200.463C311.77 200.412 311.792 200.363 311.824 200.321C311.856 200.279 311.895 200.243 311.941 200.217C311.987 200.19 312.037 200.173 312.09 200.166C312.142 200.16 312.195 200.164 312.246 200.178C312.297 200.192 312.344 200.217 312.385 200.25C312.426 200.283 312.461 200.324 312.485 200.371C313.01 201.288 313.73 201.872 314.543 202.061C314.903 202.139 315.275 202.141 315.636 202.067C315.997 201.993 316.339 201.844 316.639 201.631C316.682 201.603 316.73 201.583 316.781 201.573C316.832 201.563 316.884 201.563 316.935 201.573C316.985 201.584 317.033 201.604 317.076 201.632C317.119 201.661 317.156 201.698 317.184 201.741C317.213 201.784 317.233 201.832 317.243 201.883C317.253 201.934 317.252 201.986 317.242 202.037C317.232 202.087 317.212 202.135 317.183 202.178C317.154 202.221 317.117 202.258 317.074 202.286C316.491 202.684 315.804 202.901 315.098 202.91Z" fill="#ECB88B"/>
<path d="M225.218 226.538C225.144 226.538 225.071 226.517 225.009 226.477C224.946 226.438 224.896 226.382 224.864 226.315C224.209 224.958 224.101 223.084 224.628 222.222C224.654 222.175 224.689 222.135 224.73 222.103C224.772 222.07 224.82 222.047 224.871 222.033C224.922 222.02 224.976 222.017 225.028 222.024C225.08 222.032 225.131 222.05 225.176 222.078C225.221 222.105 225.26 222.142 225.291 222.185C225.322 222.227 225.343 222.276 225.355 222.328C225.366 222.379 225.367 222.433 225.358 222.485C225.348 222.537 225.328 222.586 225.299 222.63C224.995 223.131 224.948 224.682 225.561 225.974C225.59 226.034 225.603 226.1 225.599 226.167C225.595 226.233 225.575 226.297 225.54 226.354C225.504 226.41 225.455 226.456 225.397 226.489C225.339 226.521 225.274 226.538 225.207 226.538H225.218Z" fill="#BB8A52"/>
<path d="M262.412 231.847L246.411 228.862C243.394 226.11 243.431 222.033 250.89 219.758C255.974 220.657 259.375 221.265 259.375 221.265L262.412 231.847Z" fill="url(#paint34_linear_417_599)"/>
<path d="M257.952 217.413C257.908 224.211 258.476 231.365 264.939 237.709C271.401 244.054 281.863 248.224 294.741 250.962C307.619 253.701 325.85 251.025 330.701 248.412C335.552 245.799 340.458 235.988 340.66 231.842L257.952 217.413Z" fill="url(#paint35_linear_417_599)"/>
<path d="M340.652 231.847C340.487 233.462 337.709 235.487 333.018 237.12C325.077 239.885 311.649 241.531 296.098 238.168C281.121 234.919 269.999 229.693 263.733 225.052C259.653 222.025 257.633 219.25 257.952 217.428C259.816 206.836 291.777 210.012 309.647 215.004C327.517 219.997 341.1 227.497 340.652 231.847Z" fill="url(#paint36_linear_417_599)"/>
<path d="M333.018 237.114C325.077 239.879 311.649 241.525 296.098 238.163C281.121 234.913 269.999 229.687 263.733 225.046C267.808 220.754 282.552 219.383 299.526 222.08C317.711 224.957 332.012 231.49 333.018 237.114Z" fill="url(#paint37_linear_417_599)"/>
<path d="M294.838 230.296C302.7 228.912 307.889 225.476 311.906 223.574C315.924 221.671 319.952 221.089 319.047 224.472C320.73 222.376 327.203 221.495 327.292 223.867C327.462 228.372 320.769 229.976 320.772 229.984C320.774 229.992 324.603 229.858 324.179 231.344C323.416 233.964 306.191 235.896 292.008 229.753L294.838 230.296Z" fill="url(#paint38_linear_417_599)"/>
<path d="M90.5795 187.726C90.5049 187.726 90.4318 187.704 90.3689 187.664C90.3059 187.624 90.2557 187.567 90.2241 187.499C90.1925 187.432 90.1808 187.356 90.1904 187.282C90.1999 187.208 90.2304 187.139 90.2782 187.081C90.3096 187.045 90.3384 187.003 90.3673 186.963C91.5466 185.325 90.6817 182.71 87.4846 178.221L87.4662 178.192C86.5673 176.934 85.5427 175.605 84.5704 174.355C84.5065 174.273 84.4778 174.169 84.4909 174.065C84.5039 173.962 84.5575 173.868 84.6399 173.804C84.7222 173.74 84.8266 173.711 84.9301 173.724C85.0335 173.737 85.1275 173.791 85.1915 173.873C86.1769 175.139 87.2146 176.494 88.1266 177.762L88.145 177.791C90.6844 181.347 92.7809 184.972 91.0277 187.425C90.9884 187.48 90.9491 187.532 90.9071 187.584C90.8676 187.632 90.8173 187.67 90.7603 187.695C90.7034 187.719 90.6414 187.73 90.5795 187.726Z" fill="#C5E0E2"/>
<path d="M87.7991 178.386C87.6953 178.386 87.5957 178.345 87.5221 178.272C87.4484 178.199 87.4067 178.1 87.406 177.996C87.4059 177.946 87.4148 177.898 87.4322 177.852C88.8814 174.112 90.2468 170.676 91.4523 167.647C96.083 156.024 99.1255 148.348 99.7519 141.398C100.069 138.118 100.073 134.815 99.765 131.534C99.3719 127.603 98.6302 125.617 98.4861 125.258C98.4468 125.161 98.4475 125.053 98.4881 124.957C98.5286 124.861 98.6057 124.785 98.7023 124.745C98.7989 124.706 98.9072 124.707 99.0032 124.747C99.0993 124.788 99.1754 124.865 99.2146 124.962C99.6549 126.044 100.234 128.319 100.546 131.456C100.864 134.787 100.864 138.141 100.546 141.472C99.8986 148.534 96.8298 156.252 92.1834 167.94C90.9806 170.967 89.6152 174.395 88.1686 178.129C88.1407 178.205 88.0903 178.27 88.0242 178.316C87.9582 178.362 87.8796 178.386 87.7991 178.386Z" fill="#C5E0E2"/>
<path d="M233.405 221.32C232.545 221.32 230.996 220.896 229.838 218.202C229.544 217.518 229.261 216.826 228.997 216.142C228.501 214.876 228.15 213.857 227.988 213.374C227.464 213.432 226.276 213.553 224.717 213.67C224.666 213.674 224.614 213.668 224.565 213.652C224.515 213.635 224.47 213.61 224.431 213.576C224.392 213.542 224.359 213.501 224.336 213.454C224.313 213.408 224.299 213.358 224.295 213.306C224.291 213.255 224.298 213.203 224.314 213.154C224.33 213.104 224.356 213.059 224.39 213.02C224.424 212.981 224.465 212.948 224.511 212.925C224.558 212.902 224.608 212.888 224.66 212.884C226.795 212.724 228.2 212.557 228.216 212.557C228.305 212.546 228.396 212.566 228.473 212.613C228.55 212.661 228.608 212.733 228.638 212.819C228.638 212.819 229.049 214.098 229.733 215.848C229.995 216.524 230.276 217.208 230.564 217.882C231.35 219.716 232.464 220.665 233.63 220.502C234.484 220.39 235.1 219.716 235.184 219.137C235.245 218.456 235.205 217.77 235.066 217.101C234.713 215.346 234.271 213.611 233.74 211.902C233.41 210.764 233.072 209.588 232.799 208.495C231.934 205.041 230.15 204.467 227.904 204.071L227.293 203.971C227.242 203.964 227.192 203.946 227.147 203.918C227.103 203.891 227.064 203.856 227.033 203.814C227.002 203.772 226.98 203.724 226.967 203.673C226.955 203.622 226.953 203.57 226.96 203.518C226.968 203.466 226.986 203.417 227.013 203.372C227.04 203.328 227.076 203.289 227.118 203.258C227.16 203.227 227.208 203.205 227.259 203.192C227.31 203.18 227.362 203.177 227.414 203.185L228.04 203.29C230.483 203.717 232.584 204.391 233.562 208.296C233.824 209.365 234.167 210.534 234.495 211.666C235.034 213.403 235.484 215.168 235.842 216.952C235.998 217.701 236.039 218.47 235.965 219.231C235.818 220.243 234.862 221.116 233.737 221.265C233.628 221.291 233.517 221.309 233.405 221.32Z" fill="#BB8A52"/>
<path d="M124.362 231.3C123.537 231.283 122.717 231.16 121.923 230.933C121.822 230.906 121.736 230.84 121.683 230.75C121.631 230.66 121.617 230.553 121.643 230.452C121.67 230.351 121.736 230.265 121.826 230.213C121.916 230.16 122.024 230.146 122.124 230.173C125.654 231.111 126.239 229.824 126.244 229.811C126.262 229.755 126.293 229.704 126.333 229.661C126.374 229.618 126.424 229.585 126.479 229.564C126.534 229.544 126.593 229.535 126.652 229.54C126.71 229.545 126.767 229.564 126.818 229.594C128.582 230.642 130.225 230.697 131.341 229.769C132.148 229.093 132.499 227.974 132.174 227.104C132.145 227.026 132.142 226.941 132.164 226.861C132.187 226.781 132.234 226.71 132.299 226.658C132.364 226.607 132.444 226.577 132.527 226.574C132.61 226.571 132.692 226.594 132.762 226.64C134.2 227.594 135.547 227.164 136.326 226.428C137.266 225.547 137.788 223.909 136.831 222.235C136.806 222.19 136.789 222.14 136.783 222.089C136.776 222.038 136.78 221.986 136.793 221.936C136.807 221.886 136.83 221.839 136.862 221.798C136.894 221.757 136.933 221.723 136.978 221.698C137.023 221.672 137.073 221.655 137.124 221.649C137.175 221.642 137.227 221.646 137.277 221.66C137.327 221.673 137.374 221.697 137.415 221.728C137.455 221.76 137.49 221.799 137.515 221.844C138.687 223.894 138.039 225.912 136.865 227.004C136.372 227.476 135.75 227.793 135.078 227.916C134.406 228.039 133.713 227.963 133.084 227.696C133.092 228.207 132.985 228.712 132.771 229.176C132.558 229.639 132.243 230.049 131.85 230.375C131.221 230.899 129.491 231.923 126.752 230.458C126.435 230.823 125.759 231.3 124.362 231.3Z" fill="#BB8A52"/>
<path d="M142.812 218.314C142.715 218.316 142.622 218.281 142.55 218.217C140.12 216.121 134.072 210.903 134.072 210.903L134.596 210.308C134.596 210.308 140.644 215.523 143.074 217.623C143.134 217.675 143.177 217.745 143.197 217.823C143.216 217.901 143.211 217.983 143.183 218.058C143.154 218.133 143.103 218.198 143.037 218.243C142.971 218.289 142.892 218.313 142.812 218.312V218.314Z" fill="#BB8A52"/>
<path d="M177.386 8.38463C174.765 11.498 164.726 12.5777 153.155 10.7668C141.318 8.90876 131.928 4.64759 130.731 0.808347C131.131 0.651433 131.549 0.542353 131.975 0.483382C144.177 -1.18597 165.52 1.57095 175.876 7.17128C176.449 7.48114 176.96 7.89224 177.386 8.38463Z" fill="url(#paint39_linear_417_599)"/>
<path d="M300.724 209.005C298.494 208.497 298.719 207.454 300.462 207.001C302.204 206.547 305.569 206.804 307.207 209.359C308.845 211.914 305.994 213.311 305.26 212.915C304.526 212.52 303.229 210.743 302.975 211.081C302.721 211.419 302.354 215.342 301.14 214.946C299.927 214.551 297.013 213.594 297.105 212.887C297.309 211.375 301.017 209.074 300.724 209.005Z" fill="url(#paint40_linear_417_599)"/>
<path d="M299.377 123.069C301.998 123.622 303.735 120.425 302.627 118.032C301.518 115.64 298.483 116.174 297.385 118.247C296.287 120.32 297.349 122.642 299.377 123.069Z" fill="url(#paint41_linear_417_599)"/>
<path d="M310.512 170.621C309.744 166.53 303.203 163.409 295.737 167.872C289.853 171.389 288.703 176.827 292.091 180.831C295.48 184.835 302.388 182.71 306.419 180.215C310.449 177.72 311.277 174.717 310.512 170.621ZM305.368 179.172C302.053 181.224 296.366 182.977 293.575 179.678C290.784 176.379 291.74 171.908 296.575 169.012C302.721 165.343 308.106 167.906 308.735 171.276C309.364 174.646 308.685 177.131 305.368 179.172Z" fill="url(#paint42_linear_417_599)"/>
<path d="M282.833 211.839C286.811 211.888 287.144 215.998 285.354 217.457C284.923 217.805 284.42 218.052 283.881 218.18C283.342 218.308 282.782 218.314 282.241 218.198C281.699 218.081 281.191 217.846 280.752 217.508C280.314 217.17 279.957 216.738 279.706 216.244C278.582 214.087 280.343 211.81 282.833 211.839Z" fill="url(#paint43_linear_417_599)"/>
<path d="M320.934 136.92C320.855 136.92 320.777 136.896 320.712 136.852C319.081 135.732 318.19 133.198 318.269 129.907C318.272 129.804 318.314 129.707 318.388 129.636C318.461 129.564 318.56 129.524 318.662 129.524C318.766 129.527 318.864 129.571 318.936 129.646C319.008 129.721 319.047 129.821 319.045 129.925C318.974 132.905 319.76 135.25 321.141 136.215C321.211 136.262 321.263 136.331 321.291 136.41C321.319 136.489 321.321 136.576 321.296 136.656C321.271 136.737 321.221 136.807 321.153 136.857C321.085 136.906 321.003 136.933 320.919 136.933L320.934 136.92Z" fill="#51823B"/>
<path d="M331.27 181.088C330.328 181.082 329.394 180.923 328.503 180.619C328.454 180.602 328.408 180.577 328.369 180.543C328.33 180.509 328.298 180.468 328.275 180.421C328.252 180.375 328.238 180.325 328.234 180.273C328.231 180.222 328.237 180.17 328.254 180.121C328.27 180.072 328.296 180.026 328.33 179.987C328.364 179.948 328.405 179.916 328.451 179.893C328.497 179.87 328.548 179.856 328.599 179.853C328.651 179.849 328.702 179.856 328.752 179.872C333.338 181.4 336.063 178.402 336.561 177.775C336.627 177.694 336.722 177.643 336.826 177.632C336.929 177.621 337.033 177.652 337.114 177.718C337.195 177.783 337.247 177.879 337.257 177.982C337.268 178.086 337.237 178.19 337.172 178.271C336.46 179.15 335.56 179.859 334.539 180.346C333.518 180.834 332.401 181.087 331.27 181.088Z" fill="#51823B"/>
<path d="M291.109 207.939C291.047 207.939 290.986 207.925 290.931 207.897C281.441 203.083 274.038 190.952 272.51 177.71C272.504 177.658 272.509 177.606 272.523 177.556C272.537 177.506 272.561 177.46 272.594 177.419C272.626 177.378 272.666 177.344 272.712 177.319C272.757 177.294 272.807 177.278 272.859 177.272C272.91 177.266 272.963 177.271 273.012 177.285C273.062 177.3 273.109 177.324 273.15 177.356C273.19 177.388 273.224 177.428 273.249 177.474C273.274 177.519 273.29 177.569 273.296 177.621C274.795 190.611 282.026 202.499 291.29 207.197C291.369 207.237 291.432 207.303 291.469 207.383C291.507 207.463 291.516 207.554 291.495 207.64C291.475 207.726 291.426 207.803 291.356 207.858C291.286 207.912 291.2 207.942 291.111 207.942L291.109 207.939Z" fill="#51823B"/>
<path d="M302.411 231.305C296.904 231.304 291.438 230.351 286.255 228.488C286.203 228.473 286.154 228.448 286.112 228.414C286.07 228.38 286.036 228.338 286.011 228.29C285.986 228.242 285.971 228.19 285.967 228.136C285.963 228.082 285.971 228.028 285.989 227.977C286.007 227.926 286.035 227.879 286.072 227.84C286.109 227.801 286.154 227.769 286.203 227.748C286.253 227.726 286.306 227.715 286.36 227.715C286.414 227.716 286.468 227.727 286.517 227.748C292.438 229.864 298.722 230.778 305.001 230.435C311.065 230.068 315.905 228.414 318.277 225.893C318.312 225.855 318.355 225.825 318.402 225.804C318.449 225.783 318.5 225.771 318.552 225.769C318.603 225.768 318.655 225.776 318.703 225.795C318.752 225.813 318.796 225.841 318.834 225.876C318.871 225.911 318.902 225.954 318.923 226.001C318.944 226.048 318.956 226.099 318.958 226.151C318.959 226.203 318.951 226.254 318.932 226.303C318.914 226.351 318.886 226.395 318.851 226.433C315.853 229.627 309.54 231.305 302.411 231.305Z" fill="#51823B"/>
<defs>
<linearGradient id="paint0_linear_417_599" x1="238.051" y1="80.2009" x2="237.855" y2="75.0906" gradientUnits="userSpaceOnUse">
<stop stop-color="#C98348"/>
<stop offset="1" stop-color="#DD9127"/>
</linearGradient>
<linearGradient id="paint1_linear_417_599" x1="316.974" y1="205.486" x2="320.124" y2="209.664" gradientUnits="userSpaceOnUse">
<stop stop-color="#F7B381"/>
<stop offset="1" stop-color="#FCD7BA"/>
</linearGradient>
<linearGradient id="paint2_linear_417_599" x1="213.019" y1="109.497" x2="231.03" y2="114.935" gradientUnits="userSpaceOnUse">
<stop stop-color="#E8E8EB"/>
<stop offset="1" stop-color="#D3D3D3"/>
</linearGradient>
<linearGradient id="paint3_linear_417_599" x1="220.878" y1="105.105" x2="255.882" y2="116.659" gradientUnits="userSpaceOnUse">
<stop stop-color="#E8E8EB"/>
<stop offset="1" stop-color="#D3D3D3"/>
</linearGradient>
<linearGradient id="paint4_linear_417_599" x1="258.311" y1="108.761" x2="279.604" y2="112.996" gradientUnits="userSpaceOnUse">
<stop stop-color="#E8E8EB"/>
<stop offset="1" stop-color="#D3D3D3"/>
</linearGradient>
<linearGradient id="paint5_linear_417_599" x1="218.648" y1="83.3665" x2="228.315" y2="89.3992" gradientUnits="userSpaceOnUse">
<stop offset="0.04" stop-color="#654B1E"/>
<stop offset="1" stop-color="#2E1D12"/>
</linearGradient>
<linearGradient id="paint6_linear_417_599" x1="268.917" y1="83.5054" x2="275.623" y2="88.0941" gradientUnits="userSpaceOnUse">
<stop offset="0.04" stop-color="#654B1E"/>
<stop offset="1" stop-color="#2E1D12"/>
</linearGradient>
<linearGradient id="paint7_linear_417_599" x1="233.78" y1="83.2197" x2="245.365" y2="87.7928" gradientUnits="userSpaceOnUse">
<stop offset="0.04" stop-color="#654B1E"/>
<stop offset="1" stop-color="#2E1D12"/>
</linearGradient>
<linearGradient id="paint8_linear_417_599" x1="129.871" y1="48.085" x2="128.6" y2="61.5053" gradientUnits="userSpaceOnUse">
<stop offset="0.04" stop-color="#654B1E"/>
<stop offset="1" stop-color="#2E1D12"/>
</linearGradient>
<linearGradient id="paint9_linear_417_599" x1="151.992" y1="31.9545" x2="161.057" y2="52.6236" gradientUnits="userSpaceOnUse">
<stop stop-color="white"/>
<stop offset="1" stop-color="#DDF1F3"/>
</linearGradient>
<linearGradient id="paint10_linear_417_599" x1="138.27" y1="169.313" x2="69.2816" y2="201.269" gradientUnits="userSpaceOnUse">
<stop stop-color="white"/>
<stop offset="1" stop-color="#DDF1F3"/>
</linearGradient>
<linearGradient id="paint11_linear_417_599" x1="81.347" y1="165.901" x2="43.2219" y2="143.44" gradientUnits="userSpaceOnUse">
<stop stop-color="white"/>
<stop offset="1" stop-color="#DDF1F3"/>
</linearGradient>
<linearGradient id="paint12_linear_417_599" x1="144.326" y1="175.566" x2="115.866" y2="187.619" gradientUnits="userSpaceOnUse">
<stop stop-color="white"/>
<stop offset="1" stop-color="#DDF1F3"/>
</linearGradient>
<linearGradient id="paint13_linear_417_599" x1="186.647" y1="159.347" x2="170.357" y2="163.768" gradientUnits="userSpaceOnUse">
<stop stop-color="white"/>
<stop offset="1" stop-color="#DDF1F3"/>
</linearGradient>
<linearGradient id="paint14_linear_417_599" x1="201.386" y1="223.548" x2="197.248" y2="209.758" gradientUnits="userSpaceOnUse">
<stop stop-color="#FFBD92"/>
<stop offset="1" stop-color="#FF6600"/>
</linearGradient>
<linearGradient id="paint15_linear_417_599" x1="231.091" y1="219.108" x2="229.754" y2="227.017" gradientUnits="userSpaceOnUse">
<stop offset="0.04" stop-color="#654B1E"/>
<stop offset="1" stop-color="#2E1D12"/>
</linearGradient>
<linearGradient id="paint16_linear_417_599" x1="161.051" y1="176.659" x2="168.46" y2="183.588" gradientUnits="userSpaceOnUse">
<stop stop-color="#E8E8EB"/>
<stop offset="1" stop-color="#D3D3D3"/>
</linearGradient>
<linearGradient id="paint17_linear_417_599" x1="153.774" y1="3.66224" x2="148.158" y2="38.1342" gradientUnits="userSpaceOnUse">
<stop stop-color="white"/>
<stop offset="1" stop-color="#DDF1F3"/>
</linearGradient>
<linearGradient id="paint18_linear_417_599" x1="115.253" y1="85.1278" x2="115.489" y2="88.0158" gradientUnits="userSpaceOnUse">
<stop stop-color="#45A5A5"/>
<stop offset="1" stop-color="#308B85"/>
</linearGradient>
<linearGradient id="paint19_linear_417_599" x1="78.6398" y1="210.103" x2="74.2214" y2="200.093" gradientUnits="userSpaceOnUse">
<stop stop-color="#F4BC97"/>
<stop offset="1" stop-color="#FF6600"/>
</linearGradient>
<linearGradient id="paint20_linear_417_599" x1="148.247" y1="142.352" x2="131.75" y2="148.506" gradientUnits="userSpaceOnUse">
<stop stop-color="white"/>
<stop offset="1" stop-color="#DDF1F3"/>
</linearGradient>
<linearGradient id="paint21_linear_417_599" x1="140.434" y1="203.864" x2="144.837" y2="208.267" gradientUnits="userSpaceOnUse">
<stop offset="0.04" stop-color="#654B1E"/>
<stop offset="1" stop-color="#2E1D12"/>
</linearGradient>
<linearGradient id="paint22_linear_417_599" x1="204.696" y1="72.3626" x2="204.696" y2="79.1475" gradientUnits="userSpaceOnUse">
<stop stop-color="#E8E8EB"/>
<stop offset="1" stop-color="#D3D3D3"/>
</linearGradient>
<linearGradient id="paint23_linear_417_599" x1="221.324" y1="72.3626" x2="221.324" y2="79.1475" gradientUnits="userSpaceOnUse">
<stop stop-color="#E8E8EB"/>
<stop offset="1" stop-color="#D3D3D3"/>
</linearGradient>
<linearGradient id="paint24_linear_417_599" x1="237.952" y1="72.3626" x2="237.952" y2="79.1475" gradientUnits="userSpaceOnUse">
<stop stop-color="#E8E8EB"/>
<stop offset="1" stop-color="#D3D3D3"/>
</linearGradient>
<linearGradient id="paint25_linear_417_599" x1="254.58" y1="72.3626" x2="254.58" y2="79.1475" gradientUnits="userSpaceOnUse">
<stop stop-color="#E8E8EB"/>
<stop offset="1" stop-color="#D3D3D3"/>
</linearGradient>
<linearGradient id="paint26_linear_417_599" x1="271.207" y1="72.3626" x2="271.207" y2="79.1475" gradientUnits="userSpaceOnUse">
<stop stop-color="#E8E8EB"/>
<stop offset="1" stop-color="#D3D3D3"/>
</linearGradient>
<linearGradient id="paint27_linear_417_599" x1="318.738" y1="128.772" x2="316.4" y2="132.383" gradientUnits="userSpaceOnUse">
<stop stop-color="#AAC76F"/>
<stop offset="1" stop-color="#609640"/>
</linearGradient>
<linearGradient id="paint28_linear_417_599" x1="336.579" y1="177.165" x2="337.494" y2="180.695" gradientUnits="userSpaceOnUse">
<stop stop-color="#AAC76F"/>
<stop offset="1" stop-color="#609640"/>
</linearGradient>
<linearGradient id="paint29_linear_417_599" x1="277.982" y1="189.655" x2="268.121" y2="194.712" gradientUnits="userSpaceOnUse">
<stop stop-color="#AAC76F"/>
<stop offset="1" stop-color="#609640"/>
</linearGradient>
<linearGradient id="paint30_linear_417_599" x1="329.724" y1="167.736" x2="326.307" y2="163.283" gradientUnits="userSpaceOnUse">
<stop stop-color="#C98348"/>
<stop offset="1" stop-color="#DD9127"/>
</linearGradient>
<linearGradient id="paint31_linear_417_599" x1="326.603" y1="151.656" x2="327.056" y2="146.682" gradientUnits="userSpaceOnUse">
<stop stop-color="#F7B381"/>
<stop offset="1" stop-color="#FCD7BA"/>
</linearGradient>
<linearGradient id="paint32_linear_417_599" x1="305.871" y1="156.386" x2="314.933" y2="151.739" gradientUnits="userSpaceOnUse">
<stop stop-color="#F7B381"/>
<stop offset="1" stop-color="#FCD7BA"/>
</linearGradient>
<linearGradient id="paint33_linear_417_599" x1="336.973" y1="185.546" x2="322.25" y2="199.134" gradientUnits="userSpaceOnUse">
<stop stop-color="#F7B381"/>
<stop offset="1" stop-color="#FCD7BA"/>
</linearGradient>
<linearGradient id="paint34_linear_417_599" x1="250.58" y1="221.024" x2="254.611" y2="228.901" gradientUnits="userSpaceOnUse">
<stop stop-color="#E8E8EB"/>
<stop offset="1" stop-color="#D3D3D3"/>
</linearGradient>
<linearGradient id="paint35_linear_417_599" x1="288.892" y1="217.69" x2="309.783" y2="243.561" gradientUnits="userSpaceOnUse">
<stop stop-color="#E8E8EB"/>
<stop offset="1" stop-color="#D3D3D3"/>
</linearGradient>
<linearGradient id="paint36_linear_417_599" x1="320.206" y1="227.851" x2="278.642" y2="223.338" gradientUnits="userSpaceOnUse">
<stop stop-color="#E8E8EB"/>
<stop offset="1" stop-color="#D3D3D3"/>
</linearGradient>
<linearGradient id="paint37_linear_417_599" x1="297.351" y1="234.219" x2="301.817" y2="220.505" gradientUnits="userSpaceOnUse">
<stop stop-color="#E8E8EB"/>
<stop offset="1" stop-color="#D3D3D3"/>
</linearGradient>
<linearGradient id="paint38_linear_417_599" x1="309.422" y1="225.762" x2="311.054" y2="233.045" gradientUnits="userSpaceOnUse">
<stop stop-color="#AAC76F"/>
<stop offset="1" stop-color="#609640"/>
</linearGradient>
<linearGradient id="paint39_linear_417_599" x1="149.13" y1="20.5602" x2="155.629" y2="-0.488876" gradientUnits="userSpaceOnUse">
<stop stop-color="white"/>
<stop offset="1" stop-color="#DDF1F3"/>
</linearGradient>
<linearGradient id="paint40_linear_417_599" x1="303.292" y1="215.481" x2="301.473" y2="207.863" gradientUnits="userSpaceOnUse">
<stop stop-color="#C98348"/>
<stop offset="1" stop-color="#DD9127"/>
</linearGradient>
<linearGradient id="paint41_linear_417_599" x1="298.58" y1="117.086" x2="302.233" y2="124.141" gradientUnits="userSpaceOnUse">
<stop stop-color="#E94E4E"/>
<stop offset="1" stop-color="#D33332"/>
</linearGradient>
<linearGradient id="paint42_linear_417_599" x1="303.617" y1="187.519" x2="299.492" y2="170.003" gradientUnits="userSpaceOnUse">
<stop stop-color="#51823B"/>
<stop offset="1" stop-color="#AAC76F"/>
</linearGradient>
<linearGradient id="paint43_linear_417_599" x1="282.649" y1="213.909" x2="283.381" y2="217.25" gradientUnits="userSpaceOnUse">
<stop stop-color="#E94E4E"/>
<stop offset="1" stop-color="#D33332"/>
</linearGradient>
</defs>
</svg>
