<svg width="373" height="271" viewBox="0 0 373 271" fill="none" xmlns="http://www.w3.org/2000/svg">
<path d="M8.44659 146.306C-10.8085 175.589 -3.94556 241.611 102.119 235.243C208.184 228.875 205.919 180.714 263.786 192.207C331.764 205.708 398.793 121.343 363.063 51.3562C328.213 -16.9205 226.65 -19.1988 171.306 57.0627C109.51 142.21 39.214 99.5154 8.44659 146.306Z" fill="#0083B3"/>
<path d="M175.385 256.173H307.894V59.4487L175.385 59.4487L175.385 256.173Z" fill="url(#paint0_linear_417_509)"/>
<path d="M292.264 80.1826H197.238V169.699H292.264V80.1826Z" fill="url(#paint1_linear_417_509)"/>
<path d="M292.264 80.1826H276.339V169.699H292.264V80.1826Z" fill="url(#paint2_linear_417_509)"/>
<path d="M197.238 115.986C197.038 115.986 196.842 115.926 196.676 115.815C196.51 115.703 196.38 115.544 196.305 115.359C196.229 115.173 196.21 114.97 196.25 114.774C196.291 114.577 196.388 114.398 196.531 114.257L215.507 95.603C215.602 95.51 215.714 95.4366 215.837 95.3869C215.96 95.3372 216.091 95.3122 216.224 95.3133C216.356 95.3144 216.487 95.3416 216.609 95.3933C216.731 95.4451 216.842 95.5204 216.935 95.6149C217.028 95.7094 217.102 95.8213 217.151 95.9442C217.201 96.0671 217.226 96.1986 217.225 96.3312C217.224 96.4638 217.197 96.5948 217.145 96.7169C217.093 96.839 217.018 96.9496 216.923 97.0426L197.947 115.697C197.758 115.883 197.503 115.987 197.238 115.986Z" fill="url(#paint3_linear_417_509)"/>
<path d="M292.266 115.85C292.066 115.85 291.87 115.79 291.704 115.678C291.537 115.567 291.408 115.408 291.332 115.223C291.257 115.037 291.238 114.833 291.278 114.637C291.318 114.441 291.416 114.261 291.559 114.121L310.403 95.5964C310.498 95.5034 310.61 95.43 310.733 95.3803C310.856 95.3306 310.987 95.3056 311.12 95.3067C311.252 95.3078 311.383 95.335 311.505 95.3867C311.627 95.4385 311.738 95.5138 311.831 95.6083C311.924 95.7028 311.997 95.8147 312.047 95.9376C312.097 96.0606 312.122 96.192 312.121 96.3246C312.12 96.4572 312.093 96.5882 312.041 96.7103C311.989 96.8324 311.914 96.943 311.819 97.036L292.973 115.554C292.785 115.742 292.531 115.849 292.266 115.85Z" fill="url(#paint4_linear_417_509)"/>
<path d="M209.163 153.779H208.059V150.223L209.163 150.83V153.779Z" fill="url(#paint5_linear_417_509)"/>
<path d="M199.886 152.542H198.537V148.204L199.886 148.946V152.542Z" fill="url(#paint6_linear_417_509)"/>
<path d="M202.153 152.979V153.316C202.153 153.575 202.051 153.823 201.868 154.006C201.685 154.188 201.437 154.291 201.178 154.291H197.238V152.004H201.178C201.437 152.004 201.685 152.107 201.868 152.29C202.051 152.472 202.153 152.72 202.153 152.979Z" fill="url(#paint7_linear_417_509)"/>
<path d="M210.084 153.336H207.138C206.62 153.336 206.2 153.755 206.2 154.273C206.2 154.79 206.62 155.21 207.138 155.21H210.084C210.602 155.21 211.022 154.79 211.022 154.273C211.022 153.755 210.602 153.336 210.084 153.336Z" fill="url(#paint8_linear_417_509)"/>
<path d="M203.653 155.175V169.698H197.238V153.299H201.777C202.275 153.299 202.752 153.496 203.104 153.848C203.456 154.2 203.653 154.677 203.653 155.175Z" fill="url(#paint9_linear_417_509)"/>
<path d="M206.98 154.399H210.242C210.506 154.399 210.767 154.451 211.011 154.551C211.255 154.652 211.477 154.8 211.663 154.987C211.85 155.173 211.998 155.395 212.099 155.638C212.2 155.882 212.252 156.143 212.252 156.407V169.699H204.972V156.407C204.972 155.875 205.184 155.364 205.56 154.987C205.937 154.611 206.448 154.399 206.98 154.399Z" fill="url(#paint10_linear_417_509)"/>
<path d="M175.493 256.271H93.5161V59.3408H175.493V256.271ZM93.7323 256.054H175.277V59.557H93.7323V256.054Z" fill="#F59192"/>
<path d="M175.385 59.449H93.6245V256.173H175.385V59.449Z" fill="url(#paint11_linear_417_509)"/>
<path d="M172.19 93.4631H166.872C165.446 93.4631 164.289 94.6196 164.289 96.0462V96.6579C164.289 98.0845 165.446 99.241 166.872 99.241H172.19C173.616 99.241 174.773 98.0845 174.773 96.6579V96.0462C174.773 94.6196 173.616 93.4631 172.19 93.4631Z" fill="url(#paint12_linear_417_509)"/>
<path d="M148.768 117.473C160.433 117.473 169.89 108.017 169.89 96.3509C169.89 84.6852 160.433 75.2283 148.768 75.2283C137.102 75.2283 127.645 84.6852 127.645 96.3509C127.645 108.017 137.102 117.473 148.768 117.473Z" fill="url(#paint13_linear_417_509)"/>
<path d="M175.385 256.173H307.894V193.957H175.385V256.173Z" fill="url(#paint14_linear_417_509)"/>
<path d="M175.385 193.958H93.6245V256.173H175.385V193.958Z" fill="url(#paint15_linear_417_509)"/>
<path d="M325.807 26.6367H75.7095V66.4783H325.807V26.6367Z" fill="url(#paint16_linear_417_509)"/>
<path d="M287.731 60.5837C302.21 60.5837 313.948 48.8458 313.948 34.3663C313.948 19.8868 302.21 8.14893 287.731 8.14893C273.252 8.14893 261.514 19.8868 261.514 34.3663C261.514 48.8458 273.252 60.5837 287.731 60.5837Z" fill="url(#paint17_linear_417_509)"/>
<path d="M175.383 26.6367H75.7095V66.4783H175.383V26.6367Z" fill="url(#paint18_linear_417_509)"/>
<path d="M119.764 248.642L125.295 250.331L120.118 252.568C119.995 252.621 119.884 252.699 119.792 252.798C119.701 252.897 119.631 253.013 119.587 253.14C119.543 253.267 119.526 253.402 119.537 253.536C119.548 253.67 119.587 253.801 119.651 253.919L126.203 265.997C126.253 266.086 126.279 266.186 126.278 266.287C126.277 266.389 126.25 266.489 126.198 266.576C126.147 266.664 126.073 266.736 125.985 266.786C125.896 266.837 125.796 266.863 125.695 266.862H120.315C120.188 266.862 120.065 266.811 119.975 266.721C119.885 266.631 119.835 266.509 119.835 266.382C119.835 266.255 119.885 266.133 119.975 266.043C120.065 265.953 120.188 265.902 120.315 265.902H123.881C123.984 265.902 124.084 265.875 124.173 265.823C124.261 265.771 124.334 265.697 124.384 265.608C124.435 265.518 124.46 265.417 124.459 265.315C124.458 265.213 124.429 265.112 124.376 265.025L116.539 252.008L119.764 248.642Z" fill="url(#paint19_linear_417_509)"/>
<path d="M113.977 252.922L117.797 249.248H121.664L116.009 253.411C115.815 253.553 115.681 253.763 115.631 253.998C115.582 254.234 115.621 254.48 115.741 254.688L124.357 269.624C124.415 269.725 124.446 269.839 124.446 269.955C124.446 270.071 124.415 270.185 124.357 270.286C124.299 270.386 124.216 270.47 124.115 270.528C124.014 270.586 123.9 270.617 123.784 270.617H118.577C118.45 270.617 118.328 270.566 118.238 270.476C118.148 270.386 118.097 270.264 118.097 270.137C118.097 270.009 118.148 269.887 118.238 269.797C118.328 269.707 118.45 269.657 118.577 269.657H121.997C122.114 269.657 122.229 269.626 122.33 269.567C122.431 269.508 122.515 269.423 122.572 269.321C122.63 269.219 122.66 269.103 122.658 268.986C122.656 268.869 122.623 268.754 122.563 268.654L113.815 254.126C113.703 253.937 113.658 253.715 113.687 253.496C113.716 253.277 113.819 253.075 113.977 252.922Z" fill="url(#paint20_linear_417_509)"/>
<path d="M61.2918 270.623C72.431 270.623 81.4612 261.593 81.4612 250.454C81.4612 239.315 72.431 230.284 61.2918 230.284C50.1526 230.284 41.1224 239.315 41.1224 250.454C41.1224 261.593 50.1526 270.623 61.2918 270.623Z" fill="url(#paint21_linear_417_509)"/>
<path d="M61.292 262.172C67.7635 262.172 73.0097 256.925 73.0097 250.454C73.0097 243.982 67.7635 238.736 61.292 238.736C54.8204 238.736 49.5742 243.982 49.5742 250.454C49.5742 256.925 54.8204 262.172 61.292 262.172Z" fill="url(#paint22_linear_417_509)"/>
<path d="M61.2918 256.431C64.5927 256.431 67.2685 253.755 67.2685 250.454C67.2685 247.153 64.5927 244.477 61.2918 244.477C57.991 244.477 55.3152 247.153 55.3152 250.454C55.3152 253.755 57.991 256.431 61.2918 256.431Z" fill="url(#paint23_linear_417_509)"/>
<path d="M177.743 270.623C188.882 270.623 197.912 261.593 197.912 250.454C197.912 239.315 188.882 230.284 177.743 230.284C166.604 230.284 157.574 239.315 157.574 250.454C157.574 261.593 166.604 270.623 177.743 270.623Z" fill="url(#paint24_linear_417_509)"/>
<path d="M177.743 262.172C184.215 262.172 189.461 256.925 189.461 250.454C189.461 243.982 184.215 238.736 177.743 238.736C171.272 238.736 166.025 243.982 166.025 250.454C166.025 256.925 171.272 262.172 177.743 262.172Z" fill="url(#paint25_linear_417_509)"/>
<path d="M177.743 256.431C181.044 256.431 183.72 253.755 183.72 250.454C183.72 247.153 181.044 244.477 177.743 244.477C174.442 244.477 171.766 247.153 171.766 250.454C171.766 253.755 174.442 256.431 177.743 256.431Z" fill="url(#paint26_linear_417_509)"/>
<path d="M28.6298 197.735L27.2249 198.892L48.4139 224.623L49.8189 223.466L28.6298 197.735Z" fill="url(#paint27_linear_417_509)"/>
<path d="M55.4538 172.076H21.6018V205.083H55.4538V172.076Z" fill="url(#paint28_linear_417_509)"/>
<path d="M19.3796 204.141H58.7197V206.211H19.3796C19.2436 206.211 19.109 206.185 18.9834 206.133C18.8578 206.081 18.7436 206.004 18.6475 205.908C18.5513 205.812 18.4751 205.698 18.423 205.572C18.371 205.447 18.3442 205.312 18.3442 205.176C18.3442 205.04 18.371 204.905 18.423 204.78C18.4751 204.654 18.5513 204.54 18.6475 204.444C18.7436 204.348 18.8578 204.271 18.9834 204.219C19.109 204.167 19.2436 204.141 19.3796 204.141Z" fill="url(#paint29_linear_417_509)"/>
<path d="M153.106 182.594C156.718 183.349 159.616 181.641 159.856 176.797C160.096 171.953 158.03 170.643 154.932 170.604L153.106 182.594Z" fill="url(#paint30_linear_417_509)"/>
<path d="M171.306 223.545C171.306 223.545 169.436 225.328 166.86 227.868C162.733 231.914 156.789 237.874 153.776 241.486C148.88 247.346 141.753 250.274 136.159 250.274C130.565 250.274 90.7775 250.707 88.8991 250.274C88.1966 250.11 86.5366 248.978 84.736 247.622C81.7098 245.35 78.2773 242.45 78.2773 242.45H33.7257C42.8798 219.654 57.641 213.342 58.002 212.646C58.363 211.95 59.0374 208.384 59.0374 208.384L60.2327 207.028L63.0881 206.229L110.7 207.526V211.81C110.7 212.776 110.195 212.776 106.233 215.216C106.018 215.349 105.815 215.498 105.623 215.662L105.511 215.763C102.171 218.789 101.505 226.865 103.057 230.872C104.717 235.154 107.893 237.824 110.932 238.883C113.971 239.942 115.815 239.482 117.473 239.482C119.131 239.482 118.162 240.13 125.116 240.13C132.07 240.13 133.669 240.623 139.646 237.913C146.623 234.75 151.686 223.679 152.254 220.884C152.255 220.88 152.255 220.875 152.254 220.871C152.81 218.091 152.561 213.628 152.139 212.009C151.718 210.39 144.916 191.316 143.517 187.464C142.119 183.612 141.985 181.217 141.985 181.217L141.256 177.558C146.506 172.558 149.535 170.585 150.767 170.163C151.999 169.742 155.194 169.569 155.654 169.569C156.115 169.569 156.67 170.433 156.899 171.006C157.128 171.579 157.569 175.44 156.994 177.694C156.497 179.639 154.792 182.906 154.331 183.405C153.871 183.904 151.737 183.539 151.534 183.539C151.331 183.539 150.153 184.421 150.153 184.421C150.455 186.238 150.984 188.01 151.729 189.695C151.729 189.704 151.729 189.712 151.729 189.721C154.485 196.154 159.774 202.714 162.37 206.231C165.692 210.733 167.703 210.911 168.842 213.969C169.981 217.028 171.306 223.545 171.306 223.545Z" fill="url(#paint31_linear_417_509)"/>
<path d="M152.254 220.873C152.204 221.225 151.029 229.158 145.517 235.814C140.059 242.404 129.783 242.789 118.945 242.789C108.107 242.789 103.053 239.331 100.788 231.981C98.5484 224.71 101.817 218.999 105.509 215.752C102.169 218.779 101.503 226.854 103.055 230.862C104.715 235.144 107.891 237.813 110.93 238.872C113.969 239.931 115.813 239.471 117.471 239.471C119.128 239.471 118.16 240.12 125.114 240.12C132.067 240.12 133.667 240.612 139.644 237.902C146.621 234.739 151.683 223.668 152.254 220.873Z" fill="url(#paint32_linear_417_509)"/>
<path d="M171.306 223.545C171.306 223.545 169.436 225.328 166.86 227.868C162.733 231.914 156.789 237.874 153.776 241.486C148.88 247.346 141.753 250.274 136.159 250.274C130.565 250.274 90.7776 250.707 88.8992 250.274C88.1967 250.11 86.5367 248.978 84.7361 247.622C97.2536 247.441 134.019 246.902 137.579 246.777C141.887 246.626 146.344 245.491 152.998 233.7C159.651 221.909 159.677 216.926 158.289 211.63C156.435 204.547 151.033 203.185 149.144 194.999C147.358 187.259 150.149 184.434 150.149 184.434C150.453 186.247 150.984 188.014 151.729 189.695C151.729 189.704 151.729 189.712 151.729 189.721C154.485 196.154 159.774 202.714 162.37 206.231C165.692 210.733 167.703 210.911 168.842 213.969C169.981 217.028 171.306 223.545 171.306 223.545Z" fill="url(#paint33_linear_417_509)"/>
<path d="M171.306 223.545C171.306 223.545 169.436 225.328 166.859 227.868L161.672 227.183C166.9 218.766 163.116 214.737 159.205 206.739C155.418 198.992 151.96 190.266 151.748 189.73C154.504 196.162 159.793 202.723 162.389 206.24C165.712 210.742 167.722 210.919 168.861 213.978C170 217.037 171.306 223.545 171.306 223.545Z" fill="url(#paint34_linear_417_509)"/>
<path d="M36.9142 244.875C36.9142 244.715 41.5723 228.949 55.6505 220.352C72.1949 210.251 95.2478 216.375 95.2478 229.863C95.2478 242.4 84.6325 244.883 84.6325 244.883L36.9142 244.875Z" fill="url(#paint35_linear_417_509)"/>
<path d="M54.6626 195.328C54.7166 193.27 56.5323 193.166 57.9719 193.383C59.4115 193.599 66.8212 194.481 77.3177 195.2C87.8142 195.92 104.862 197.293 107.605 197.258C110.348 197.224 113.024 197.429 113.024 200.933C113.024 204.437 112.03 208.377 110.247 208.377H59.0375C58.7976 207.133 58.1882 205.989 57.2888 205.096C55.8125 203.667 54.4853 202.232 54.6626 195.328Z" fill="url(#paint36_linear_417_509)"/>
<path d="M148.768 114.344C158.705 114.344 166.76 106.288 166.76 96.3509C166.76 86.4138 158.705 78.3582 148.768 78.3582C138.831 78.3582 130.775 86.4138 130.775 96.3509C130.775 106.288 138.831 114.344 148.768 114.344Z" fill="url(#paint37_linear_417_509)"/>
<path d="M155.73 95.1403H141.803C141.63 95.1402 141.459 95.1005 141.304 95.0242C141.149 94.948 141.013 94.8372 140.907 94.7003C140.801 94.5635 140.728 94.4042 140.693 94.2347C140.658 94.0652 140.662 93.89 140.705 93.7224C141.199 91.9646 142.254 90.4164 143.709 89.3137C145.165 88.2111 146.941 87.6143 148.767 87.6143C150.592 87.6143 152.368 88.2111 153.824 89.3137C155.279 90.4164 156.334 91.9646 156.828 93.7224C156.871 93.89 156.876 94.0652 156.841 94.2347C156.806 94.4042 156.732 94.5635 156.626 94.7003C156.52 94.8372 156.385 94.948 156.229 95.0242C156.074 95.1005 155.903 95.1402 155.73 95.1403Z" fill="url(#paint38_linear_417_509)"/>
<path d="M156.514 96.3552H141.02C140.148 96.3552 139.44 97.0627 139.44 97.9353C139.44 98.808 140.148 99.5154 141.02 99.5154H156.514C157.387 99.5154 158.094 98.808 158.094 97.9353C158.094 97.0627 157.387 96.3552 156.514 96.3552Z" fill="#E95322"/>
<path d="M141.137 100.728H156.411C156.411 101.887 155.951 102.998 155.131 103.817C154.312 104.636 153.201 105.097 152.042 105.097H145.499C144.342 105.095 143.232 104.634 142.415 103.815C141.597 102.996 141.137 101.885 141.137 100.728Z" fill="url(#paint39_linear_417_509)"/>
<path d="M150.092 88.751C150.092 88.751 152.254 89.6999 151.668 90.1819C151.082 90.6639 150.092 88.751 150.092 88.751Z" fill="#0D1806"/>
<path d="M147.44 88.751C147.44 88.751 145.279 89.6999 145.864 90.1819C146.45 90.6639 147.44 88.751 147.44 88.751Z" fill="#0D1806"/>
<path d="M148.768 88.6968C148.768 88.6968 147.367 91.1912 148.768 91.2063H148.781C150.168 91.1912 148.77 88.6903 148.768 88.6968Z" fill="#0D1806"/>
<path d="M305.017 34.3664C305.075 36.6729 304.67 38.9677 303.827 41.1155C302.984 43.2633 301.72 45.2207 300.109 46.8724C298.498 48.5242 296.573 49.8368 294.447 50.7331C292.321 51.6293 290.037 52.091 287.73 52.091C285.423 52.091 283.139 51.6293 281.013 50.7331C278.887 49.8368 276.961 48.5242 275.35 46.8724C273.739 45.2207 272.475 43.2633 271.633 41.1155C270.79 38.9677 270.385 36.6729 270.443 34.3664C270.443 34.0465 270.452 33.7288 270.469 33.4132C270.751 29.0282 272.692 24.9151 275.898 21.9097C279.103 18.9042 283.332 17.2317 287.727 17.2319C292.121 17.2322 296.35 18.9052 299.555 21.9111C302.76 24.917 304.7 29.0303 304.982 33.4153C305.005 33.7295 305.017 34.0465 305.017 34.3664Z" fill="url(#paint40_linear_417_509)"/>
<path d="M305.017 34.3666C305.075 36.6731 304.67 38.9678 303.827 41.1156C302.984 43.2634 301.72 45.2209 300.109 46.8726C298.498 48.5243 296.573 49.837 294.447 50.7332C292.321 51.6295 290.037 52.0912 287.73 52.0912C285.423 52.0912 283.139 51.6295 281.013 50.7332C278.887 49.837 276.961 48.5243 275.35 46.8726C273.739 45.2209 272.475 43.2634 271.633 41.1156C270.79 38.9678 270.385 36.6731 270.443 34.3666C270.443 34.0467 270.452 33.7289 270.469 33.4133H304.982C305.005 33.7289 305.017 34.0467 305.017 34.3666Z" fill="url(#paint41_linear_417_509)"/>
<path d="M303.233 37.8486H272.226C271.029 37.8486 270.058 38.8193 270.058 40.0167V40.0188C270.058 41.2162 271.029 42.1868 272.226 42.1868H303.233C304.431 42.1868 305.402 41.2162 305.402 40.0188V40.0167C305.402 38.8193 304.431 37.8486 303.233 37.8486Z" fill="#007222"/>
<path d="M304.273 31.7271H271.191C269.904 31.7271 268.861 32.7703 268.861 34.0572V34.0594C268.861 35.3463 269.904 36.3895 271.191 36.3895H304.273C305.56 36.3895 306.603 35.3463 306.603 34.0594V34.0572C306.603 32.7703 305.56 31.7271 304.273 31.7271Z" fill="#007222"/>
<path d="M304.42 36.182C301.662 36.182 301.893 34.0745 299.665 34.0745C297.287 34.0745 297.287 36.2015 294.894 36.2015C292.501 36.2015 292.516 34.0745 290.126 34.0745C287.735 34.0745 287.748 36.2015 285.357 36.2015C282.967 36.2015 282.98 34.0745 280.589 34.0745C278.198 34.0745 278.211 36.2015 275.821 36.2015C273.529 36.2015 273.303 33.9794 271.193 34.0615H271.104C269.956 34.0615 268.871 34.9932 268.871 36.1431C268.871 37.2931 269.481 38.2225 271.07 38.2225C273.575 38.2225 273.603 40.3279 275.825 40.3279C278.203 40.3279 278.203 38.2009 280.593 38.2009C282.984 38.2009 282.971 40.3279 285.362 40.3279C287.752 40.3279 287.739 38.2009 290.132 38.2009C292.525 38.2009 292.51 40.3279 294.901 40.3279C297.291 40.3279 297.278 38.2009 299.669 38.2009C301.958 38.2009 302.187 40.4251 304.297 40.3408H304.386C305.533 40.3408 306.577 39.3984 306.577 38.2485C306.577 37.0985 306.009 36.182 304.42 36.182Z" fill="#FF9500"/>
<path d="M318.405 169.699H189.437C188.245 169.699 187.28 170.665 187.28 171.856V173.276C187.28 174.467 188.245 175.433 189.437 175.433H318.405C319.597 175.433 320.563 174.467 320.563 173.276V171.856C320.563 170.665 319.597 169.699 318.405 169.699Z" fill="url(#paint42_linear_417_509)"/>
<path d="M189.437 169.699H227.958V175.429H189.437C188.864 175.429 188.314 175.201 187.909 174.796C187.503 174.391 187.276 173.841 187.276 173.267V171.847C187.279 171.276 187.508 170.73 187.913 170.327C188.318 169.925 188.866 169.699 189.437 169.699Z" fill="url(#paint43_linear_417_509)"/>
<path d="M229.927 97.449H197.238V80.1826H220.799C223.027 80.1826 225.163 81.0676 226.738 82.6429C228.314 84.2181 229.199 86.3546 229.199 88.5824V95.0886C229.193 95.9315 229.448 96.7556 229.927 97.449Z" fill="url(#paint44_linear_417_509)"/>
<path d="M270.285 169.698H250.969L256.665 142.815C256.842 141.981 257.3 141.233 257.963 140.696C258.625 140.16 259.452 139.867 260.305 139.867H276.608L270.285 169.698Z" fill="url(#paint45_linear_417_509)"/>
<path d="M269.239 169.698H288.554L279.761 142.714C279.492 141.886 278.967 141.165 278.263 140.654C277.558 140.142 276.71 139.867 275.84 139.867H259.518L269.239 169.698Z" fill="url(#paint46_linear_417_509)"/>
<path d="M276.404 146.63H267.24C267.154 146.63 267.071 146.596 267.01 146.535C266.949 146.475 266.915 146.392 266.915 146.306C266.915 146.22 266.949 146.138 267.01 146.077C267.071 146.016 267.154 145.982 267.24 145.982H276.404C276.49 145.982 276.573 146.016 276.634 146.077C276.695 146.138 276.729 146.22 276.729 146.306C276.729 146.392 276.695 146.475 276.634 146.535C276.573 146.596 276.49 146.63 276.404 146.63Z" fill="#C5E0E2"/>
<path d="M279.802 151.276H276.83C276.744 151.276 276.662 151.242 276.601 151.181C276.54 151.12 276.506 151.037 276.506 150.951C276.506 150.865 276.54 150.783 276.601 150.722C276.662 150.661 276.744 150.627 276.83 150.627H279.802C279.888 150.627 279.971 150.661 280.032 150.722C280.093 150.783 280.127 150.865 280.127 150.951C280.127 151.037 280.093 151.12 280.032 151.181C279.971 151.242 279.888 151.276 279.802 151.276Z" fill="#C5E0E2"/>
<path d="M273.901 151.276H265.532C265.446 151.276 265.363 151.242 265.302 151.181C265.242 151.12 265.208 151.037 265.208 150.951C265.208 150.865 265.242 150.783 265.302 150.722C265.363 150.661 265.446 150.627 265.532 150.627H273.901C273.987 150.627 274.07 150.661 274.131 150.722C274.191 150.783 274.225 150.865 274.225 150.951C274.225 151.037 274.191 151.12 274.131 151.181C274.07 151.242 273.987 151.276 273.901 151.276Z" fill="#C5E0E2"/>
<path d="M281.037 154.749H278.065C277.979 154.749 277.896 154.715 277.835 154.654C277.775 154.594 277.74 154.511 277.74 154.425C277.74 154.339 277.775 154.257 277.835 154.196C277.896 154.135 277.979 154.101 278.065 154.101H281.037C281.123 154.101 281.205 154.135 281.266 154.196C281.327 154.257 281.361 154.339 281.361 154.425C281.361 154.511 281.327 154.594 281.266 154.654C281.205 154.715 281.123 154.749 281.037 154.749Z" fill="#C5E0E2"/>
<path d="M275.136 154.749H266.766C266.68 154.749 266.598 154.715 266.537 154.654C266.476 154.594 266.442 154.511 266.442 154.425C266.442 154.339 266.476 154.257 266.537 154.196C266.598 154.135 266.68 154.101 266.766 154.101H275.136C275.222 154.101 275.304 154.135 275.365 154.196C275.426 154.257 275.46 154.339 275.46 154.425C275.46 154.511 275.426 154.594 275.365 154.654C275.304 154.715 275.222 154.749 275.136 154.749Z" fill="#C5E0E2"/>
<path d="M282.271 158.223H279.299C279.213 158.223 279.131 158.189 279.07 158.128C279.009 158.067 278.975 157.985 278.975 157.899C278.975 157.813 279.009 157.73 279.07 157.669C279.131 157.609 279.213 157.574 279.299 157.574H282.271C282.357 157.574 282.44 157.609 282.5 157.669C282.561 157.73 282.595 157.813 282.595 157.899C282.595 157.985 282.561 158.067 282.5 158.128C282.44 158.189 282.357 158.223 282.271 158.223Z" fill="#C5E0E2"/>
<path d="M276.37 158.223H268.001C267.915 158.223 267.832 158.189 267.771 158.128C267.71 158.067 267.676 157.985 267.676 157.899C267.676 157.813 267.71 157.73 267.771 157.669C267.832 157.609 267.915 157.574 268.001 157.574H276.37C276.456 157.574 276.538 157.609 276.599 157.669C276.66 157.73 276.694 157.813 276.694 157.899C276.694 157.985 276.66 158.067 276.599 158.128C276.538 158.189 276.456 158.223 276.37 158.223Z" fill="#C5E0E2"/>
<path d="M283.505 161.696H280.533C280.447 161.696 280.365 161.662 280.304 161.601C280.243 161.541 280.209 161.458 280.209 161.372C280.209 161.286 280.243 161.204 280.304 161.143C280.365 161.082 280.447 161.048 280.533 161.048H283.505C283.591 161.048 283.674 161.082 283.734 161.143C283.795 161.204 283.829 161.286 283.829 161.372C283.829 161.458 283.795 161.541 283.734 161.601C283.674 161.662 283.591 161.696 283.505 161.696Z" fill="#C5E0E2"/>
<path d="M277.604 161.696H269.235C269.149 161.696 269.066 161.662 269.005 161.601C268.945 161.541 268.911 161.458 268.911 161.372C268.911 161.286 268.945 161.204 269.005 161.143C269.066 161.082 269.149 161.048 269.235 161.048H277.604C277.69 161.048 277.773 161.082 277.834 161.143C277.894 161.204 277.928 161.286 277.928 161.372C277.928 161.458 277.894 161.541 277.834 161.601C277.773 161.662 277.69 161.696 277.604 161.696Z" fill="#C5E0E2"/>
<path d="M54.8398 165.451H22.2177C21.246 165.451 20.4583 166.239 20.4583 167.211V172.569C20.4583 173.541 21.246 174.329 22.2177 174.329H54.8398C55.8115 174.329 56.5993 173.541 56.5993 172.569V167.211C56.5993 166.239 55.8115 165.451 54.8398 165.451Z" fill="url(#paint47_linear_417_509)"/>
<path d="M47.1921 188.204C47.1936 189.912 46.6898 191.583 45.744 193.006C44.7983 194.429 43.4528 195.541 41.8769 196.201C41.3809 196.409 40.8663 196.57 40.34 196.681C39.1291 196.943 37.8763 196.943 36.6654 196.681C36.1399 196.565 35.6261 196.401 35.1307 196.191C33.6906 195.577 32.4437 194.584 31.5224 193.318C30.6012 192.053 30.04 190.561 29.8985 189.002C29.757 187.443 30.0405 185.875 30.7189 184.464C31.3972 183.053 32.4451 181.852 33.7512 180.989C35.0573 180.126 36.5727 179.633 38.1366 179.562C39.7005 179.491 41.2543 179.845 42.6331 180.587C44.0118 181.328 45.164 182.429 45.9671 183.773C46.7702 185.117 47.1943 186.653 47.1943 188.219L47.1921 188.204Z" fill="url(#paint48_linear_417_509)"/>
<path d="M37.7352 185.236V188.779C37.7356 188.965 37.7064 189.15 37.6488 189.328C37.5722 189.576 37.4438 189.806 37.272 190.001C37.1002 190.196 36.889 190.353 36.6523 190.46C36.5683 190.497 36.4969 190.557 36.4473 190.634C36.3976 190.711 36.3719 190.801 36.3735 190.893L36.6631 196.66C36.1376 196.543 35.6239 196.379 35.1284 196.169L35.3921 190.893C35.3941 190.801 35.3683 190.71 35.3182 190.633C35.2681 190.556 35.1959 190.496 35.1111 190.46C34.8752 190.353 34.6645 190.197 34.4928 190.002C34.3211 189.808 34.1923 189.579 34.1147 189.332C34.057 189.155 34.0279 188.969 34.0282 188.783V185.24C34.0282 185.16 34.0601 185.083 34.1168 185.026C34.1736 184.969 34.2506 184.938 34.3308 184.938C34.4111 184.938 34.488 184.969 34.5448 185.026C34.6016 185.083 34.6334 185.16 34.6334 185.24V188.169C34.6334 188.295 34.6834 188.416 34.7724 188.504C34.8614 188.593 34.9821 188.643 35.1079 188.643C35.2337 188.643 35.3544 188.593 35.4434 188.504C35.5324 188.416 35.5824 188.295 35.5824 188.169V185.776C35.5824 185.696 35.6142 185.619 35.671 185.562C35.7277 185.505 35.8047 185.474 35.885 185.474C35.9652 185.474 36.0422 185.505 36.0989 185.562C36.1557 185.619 36.1876 185.696 36.1876 185.776V188.169C36.1876 188.294 36.2372 188.414 36.3255 188.503C36.4138 188.592 36.5336 188.642 36.6588 188.642C36.7094 188.642 36.7598 188.634 36.8079 188.619C36.9022 188.588 36.9843 188.528 37.0425 188.447C37.1007 188.367 37.1321 188.27 37.1322 188.171V185.242C37.1322 185.162 37.1641 185.085 37.2208 185.028C37.2776 184.972 37.3545 184.94 37.4348 184.94C37.5151 184.94 37.592 184.972 37.6488 185.028C37.7055 185.085 37.7374 185.162 37.7374 185.242L37.7352 185.236Z" fill="#AAC76F"/>
<path d="M43.0311 187.767C43.0311 188.975 42.5988 190.019 41.9504 190.514C41.845 190.592 41.7601 190.695 41.7029 190.813C41.6457 190.931 41.6178 191.062 41.6218 191.193L41.8747 196.197C41.3787 196.405 40.8641 196.565 40.3379 196.677L40.6124 191.193C40.6171 191.062 40.5899 190.931 40.533 190.813C40.4762 190.695 40.3914 190.592 40.286 190.514C39.6505 190.019 39.2052 188.975 39.2052 187.767C39.2052 186.076 40.059 184.708 41.1117 184.708C42.1644 184.708 43.0311 186.076 43.0311 187.767Z" fill="#AAC76F"/>
<path d="M116.063 243.576V239.787C116.063 239.119 116.636 238.738 117.637 238.738H135.848C136.712 238.738 136.73 239.192 136.73 242.337C136.728 242.337 124.833 246.079 116.063 243.576Z" fill="url(#paint49_linear_417_509)"/>
<path d="M73.846 233.289H58.0106C57.5641 233.289 57.2021 233.651 57.2021 234.096C57.2021 234.542 57.5641 234.904 58.0106 234.904H73.846C74.2925 234.904 74.6545 234.542 74.6545 234.096C74.6545 233.651 74.2925 233.289 73.846 233.289Z" fill="url(#paint50_linear_417_509)"/>
<path d="M72.1516 236.047H56.3161C55.8696 236.047 55.5077 236.409 55.5077 236.854C55.5077 237.3 55.8696 237.662 56.3161 237.662H72.1516C72.5981 237.662 72.96 237.3 72.96 236.854C72.96 236.409 72.5981 236.047 72.1516 236.047Z" fill="url(#paint51_linear_417_509)"/>
<path d="M70.457 238.803H54.6215C54.175 238.803 53.8131 239.164 53.8131 239.61C53.8131 240.056 54.175 240.418 54.6215 240.418H70.457C70.9035 240.418 71.2654 240.056 71.2654 239.61C71.2654 239.164 70.9035 238.803 70.457 238.803Z" fill="url(#paint52_linear_417_509)"/>
<path d="M151.32 249.075C151.32 249.075 159.474 249.248 172.071 242.914C184.669 236.581 192.582 234.525 196.654 234.843C194.875 225.064 180.289 218.398 168.39 222.786C152.693 228.579 151.32 249.075 151.32 249.075Z" fill="url(#paint53_linear_417_509)"/>
<path d="M142.294 180.878C143.093 182.037 144.998 182.367 146.349 181.237C147.7 180.106 147.715 175.658 145.398 174.996C143.081 174.335 141.522 175.554 141.576 177.899C141.63 180.245 142.294 180.878 142.294 180.878Z" fill="url(#paint54_linear_417_509)"/>
<path d="M138.044 178.943C138.044 178.943 141.792 176.946 142.583 176.509C144.401 175.519 146.552 179.287 144.881 180.465C143.47 181.459 140.236 183.161 140.236 183.161L138.044 178.943Z" fill="url(#paint55_linear_417_509)"/>
<path d="M141.419 181.176C141.501 179.846 140.541 178.706 139.275 178.628C138.01 178.551 136.918 179.566 136.837 180.896C136.755 182.226 137.715 183.366 138.981 183.444C140.246 183.521 141.338 182.506 141.419 181.176Z" fill="url(#paint56_linear_417_509)"/>
<path d="M170.54 213.899C170.437 213.399 169.949 213.078 169.45 213.181C168.95 213.283 168.629 213.771 168.732 214.271L170.329 222.039C170.432 222.538 170.92 222.86 171.419 222.757C171.918 222.654 172.24 222.166 172.137 221.667L170.54 213.899Z" fill="url(#paint57_linear_417_509)"/>
<path d="M160.044 209.196C161 208.269 162.707 210.818 163.892 214.404C165.076 217.99 163.71 219.669 162.444 218.943C161.177 218.217 159.489 209.735 160.044 209.196Z" fill="url(#paint58_linear_417_509)"/>
<path d="M158.021 173.516C158.607 173.563 159.448 175.014 159.139 177.225C158.829 179.436 157.712 180.102 157.355 179.555C157.191 179.302 157.894 177.86 157.926 176.512C157.963 174.945 157.381 173.464 158.021 173.516Z" fill="url(#paint59_linear_417_509)"/>
<path d="M56.6661 170.559H20.391C19.8371 170.559 19.3881 171.008 19.3881 171.562V171.564C19.3881 172.118 19.8371 172.567 20.391 172.567H56.6661C57.22 172.567 57.669 172.118 57.669 171.564V171.562C57.669 171.008 57.22 170.559 56.6661 170.559Z" fill="url(#paint60_linear_417_509)"/>
<path d="M246.886 86.4317V95.0779C246.893 95.9213 246.639 96.7462 246.16 97.4405C243.296 101.636 232.791 101.636 229.927 97.4405C229.448 96.7462 229.194 95.9213 229.201 95.0779V88.5716C229.201 86.3439 228.316 84.2074 226.74 82.6321C225.165 81.0568 223.029 80.1719 220.801 80.1719H243.83C245.65 81.324 246.886 83.2651 246.886 86.4317Z" fill="url(#paint61_linear_417_509)"/>
<path d="M264.561 86.4317V95.0778C264.568 95.9212 264.314 96.7461 263.835 97.4404C260.971 101.636 250.466 101.636 247.602 97.4404C247.123 96.7461 246.869 95.9212 246.876 95.0778V86.4317C246.876 83.265 245.639 81.3239 243.817 80.1826H261.503C263.336 81.3239 264.561 83.265 264.561 86.4317Z" fill="url(#paint62_linear_417_509)"/>
<path d="M282.26 86.4317V95.0778C282.266 95.9212 282.013 96.7461 281.534 97.4404C278.668 101.636 268.165 101.636 265.301 97.4404C264.821 96.7464 264.567 95.9215 264.572 95.0778V86.4317C264.572 83.265 263.336 81.3239 261.514 80.1826H279.202C281.022 81.3239 282.26 83.265 282.26 86.4317Z" fill="url(#paint63_linear_417_509)"/>
<path d="M299.946 86.4317V95.0778C299.952 95.9212 299.699 96.7461 299.22 97.4404C296.356 101.636 285.85 101.636 282.989 97.4404C282.509 96.7464 282.255 95.9215 282.26 95.0778V86.4317C282.26 83.265 281.024 81.3239 279.202 80.1826H296.887C298.714 81.3239 299.946 83.265 299.946 86.4317Z" fill="url(#paint64_linear_417_509)"/>
<path d="M282.9 97.5093C282.594 97.0719 282.374 96.5805 282.252 96.0611C282.132 96.5796 281.916 97.0709 281.614 97.5093L281.435 97.3883C281.901 96.7123 282.148 95.9095 282.144 95.0884H282.36C282.354 95.9096 282.602 96.7126 283.069 97.3883L282.9 97.5093Z" fill="url(#paint65_linear_417_509)"/>
<path d="M317.632 88.7725V95.0863C317.636 95.7742 317.467 96.452 317.141 97.0577C317.07 97.1919 316.991 97.3218 316.905 97.4467C314.041 101.642 303.536 101.642 300.674 97.4467C300.194 96.7527 299.94 95.9278 299.946 95.0842V86.438C299.946 83.2713 298.709 81.3303 296.887 80.189H313.345C315.891 80.1825 317.632 82.8001 317.632 88.7725Z" fill="url(#paint66_linear_417_509)"/>
<path d="M317.249 97.5569H316.698L316.814 97.3883C316.898 97.2668 316.975 97.1405 317.044 97.01L317.247 96.6274L317.249 97.5569Z" fill="url(#paint67_linear_417_509)"/>
<defs>
<linearGradient id="paint0_linear_417_509" x1="286.507" y1="130.339" x2="150.146" y2="213.831" gradientUnits="userSpaceOnUse">
<stop stop-color="#FFF1E0"/>
<stop offset="1" stop-color="#ECDE74"/>
</linearGradient>
<linearGradient id="paint1_linear_417_509" x1="268.253" y1="98.3612" x2="223.583" y2="148.885" gradientUnits="userSpaceOnUse">
<stop stop-color="#F3CE63"/>
<stop offset="0.04" stop-color="#F2CC62"/>
<stop offset="1" stop-color="#D2A651"/>
</linearGradient>
<linearGradient id="paint2_linear_417_509" x1="317.958" y1="77.6212" x2="267.663" y2="148.336" gradientUnits="userSpaceOnUse">
<stop stop-color="#FFF1E0"/>
<stop offset="1" stop-color="#ECDE74"/>
</linearGradient>
<linearGradient id="paint3_linear_417_509" x1="206.727" y1="102.055" x2="206.727" y2="116.976" gradientUnits="userSpaceOnUse">
<stop stop-color="#51823B"/>
<stop offset="1" stop-color="#AAC76F"/>
</linearGradient>
<linearGradient id="paint4_linear_417_509" x1="301.688" y1="102.055" x2="301.688" y2="116.976" gradientUnits="userSpaceOnUse">
<stop stop-color="#51823B"/>
<stop offset="1" stop-color="#AAC76F"/>
</linearGradient>
<linearGradient id="paint5_linear_417_509" x1="208.448" y1="151.304" x2="208.66" y2="152.603" gradientUnits="userSpaceOnUse">
<stop stop-color="white"/>
<stop offset="1" stop-color="#DDF1F3"/>
</linearGradient>
<linearGradient id="paint6_linear_417_509" x1="199.443" y1="150.003" x2="198.85" y2="150.954" gradientUnits="userSpaceOnUse">
<stop stop-color="white"/>
<stop offset="1" stop-color="#DDF1F3"/>
</linearGradient>
<linearGradient id="paint7_linear_417_509" x1="199.881" y1="151.823" x2="199.568" y2="153.327" gradientUnits="userSpaceOnUse">
<stop stop-color="white"/>
<stop offset="1" stop-color="#DDF1F3"/>
</linearGradient>
<linearGradient id="paint8_linear_417_509" x1="208.876" y1="152.864" x2="208.625" y2="154.202" gradientUnits="userSpaceOnUse">
<stop stop-color="white"/>
<stop offset="1" stop-color="#DDF1F3"/>
</linearGradient>
<linearGradient id="paint9_linear_417_509" x1="202.769" y1="157.276" x2="195.481" y2="170.518" gradientUnits="userSpaceOnUse">
<stop stop-color="#E94E4E"/>
<stop offset="1" stop-color="#D33332"/>
</linearGradient>
<linearGradient id="paint10_linear_417_509" x1="211.932" y1="153.898" x2="206.327" y2="169.041" gradientUnits="userSpaceOnUse">
<stop stop-color="#ECDE74"/>
<stop offset="1" stop-color="#EDC34D"/>
</linearGradient>
<linearGradient id="paint11_linear_417_509" x1="139.73" y1="165.799" x2="103.122" y2="109.837" gradientUnits="userSpaceOnUse">
<stop stop-color="#ECDE74"/>
<stop offset="1" stop-color="#EDC34D"/>
</linearGradient>
<linearGradient id="paint12_linear_417_509" x1="169.557" y1="96.3791" x2="172.806" y2="99.8159" gradientUnits="userSpaceOnUse">
<stop stop-color="#E8E8EB"/>
<stop offset="1" stop-color="#D3D3D3"/>
</linearGradient>
<linearGradient id="paint13_linear_417_509" x1="127.643" y1="96.3509" x2="169.89" y2="96.3509" gradientUnits="userSpaceOnUse">
<stop stop-color="#E8E8EB"/>
<stop offset="1" stop-color="#D3D3D3"/>
</linearGradient>
<linearGradient id="paint14_linear_417_509" x1="242.736" y1="226.236" x2="303.75" y2="291.402" gradientUnits="userSpaceOnUse">
<stop stop-color="#F3CE63"/>
<stop offset="0.04" stop-color="#F2CC62"/>
<stop offset="1" stop-color="#D2A651"/>
</linearGradient>
<linearGradient id="paint15_linear_417_509" x1="105.993" y1="266.882" x2="160.514" y2="186.917" gradientUnits="userSpaceOnUse">
<stop stop-color="#F3CE63"/>
<stop offset="1" stop-color="#D2A651"/>
</linearGradient>
<linearGradient id="paint16_linear_417_509" x1="186.329" y1="3.27042" x2="223.659" y2="115.256" gradientUnits="userSpaceOnUse">
<stop stop-color="#F3CE63"/>
<stop offset="1" stop-color="#D2A651"/>
</linearGradient>
<linearGradient id="paint17_linear_417_509" x1="288.619" y1="37.4119" x2="292.4" y2="50.3725" gradientUnits="userSpaceOnUse">
<stop stop-color="#E8E8EB"/>
<stop offset="1" stop-color="#D3D3D3"/>
</linearGradient>
<linearGradient id="paint18_linear_417_509" x1="85.4645" y1="19.0151" x2="140.731" y2="56.9913" gradientUnits="userSpaceOnUse">
<stop stop-color="#C98348"/>
<stop offset="1" stop-color="#D2A651"/>
</linearGradient>
<linearGradient id="paint19_linear_417_509" x1="119.392" y1="242.266" x2="120.84" y2="250.726" gradientUnits="userSpaceOnUse">
<stop offset="0.04" stop-color="#654B1E"/>
<stop offset="1" stop-color="#2E1D12"/>
</linearGradient>
<linearGradient id="paint20_linear_417_509" x1="122.615" y1="250.562" x2="114.583" y2="275.889" gradientUnits="userSpaceOnUse">
<stop offset="0.04" stop-color="#654B1E"/>
<stop offset="1" stop-color="#2E1D12"/>
</linearGradient>
<linearGradient id="paint21_linear_417_509" x1="57.0746" y1="237.536" x2="68.4465" y2="272.378" gradientUnits="userSpaceOnUse">
<stop offset="0.04" stop-color="#654B1E"/>
<stop offset="1" stop-color="#2E1D12"/>
</linearGradient>
<linearGradient id="paint22_linear_417_509" x1="63.6199" y1="244.693" x2="58.1858" y2="258.145" gradientUnits="userSpaceOnUse">
<stop stop-color="#E8E8EB"/>
<stop offset="1" stop-color="#D3D3D3"/>
</linearGradient>
<linearGradient id="paint23_linear_417_509" x1="64.2143" y1="244.609" x2="60.9179" y2="251.2" gradientUnits="userSpaceOnUse">
<stop stop-color="#52BEB8"/>
<stop offset="1" stop-color="#308B85"/>
</linearGradient>
<linearGradient id="paint24_linear_417_509" x1="173.528" y1="237.536" x2="184.9" y2="272.378" gradientUnits="userSpaceOnUse">
<stop offset="0.04" stop-color="#654B1E"/>
<stop offset="1" stop-color="#2E1D12"/>
</linearGradient>
<linearGradient id="paint25_linear_417_509" x1="180.071" y1="244.693" x2="174.637" y2="258.145" gradientUnits="userSpaceOnUse">
<stop stop-color="#E8E8EB"/>
<stop offset="1" stop-color="#D3D3D3"/>
</linearGradient>
<linearGradient id="paint26_linear_417_509" x1="180.667" y1="244.609" x2="177.371" y2="251.2" gradientUnits="userSpaceOnUse">
<stop stop-color="#52BEB8"/>
<stop offset="1" stop-color="#308B85"/>
</linearGradient>
<linearGradient id="paint27_linear_417_509" x1="36.4432" y1="201.178" x2="40.5782" y2="220.937" gradientUnits="userSpaceOnUse">
<stop stop-color="#AAC76F"/>
<stop offset="1" stop-color="#FF6600"/>
</linearGradient>
<linearGradient id="paint28_linear_417_509" x1="34.169" y1="178.686" x2="47.6398" y2="209.259" gradientUnits="userSpaceOnUse">
<stop stop-color="#F9A269"/>
<stop offset="1" stop-color="#FF6600"/>
</linearGradient>
<linearGradient id="paint29_linear_417_509" x1="32.5499" y1="194.55" x2="40.3078" y2="207.848" gradientUnits="userSpaceOnUse">
<stop stop-color="#DBE8C4"/>
<stop offset="1" stop-color="#AAC76F"/>
</linearGradient>
<linearGradient id="paint30_linear_417_509" x1="157.303" y1="174.906" x2="153.577" y2="180.96" gradientUnits="userSpaceOnUse">
<stop stop-color="#E8E8EB"/>
<stop offset="1" stop-color="#D3D3D3"/>
</linearGradient>
<linearGradient id="paint31_linear_417_509" x1="110.063" y1="196.869" x2="100.919" y2="240.627" gradientUnits="userSpaceOnUse">
<stop stop-color="#52BEB8"/>
<stop offset="1" stop-color="#308B85"/>
</linearGradient>
<linearGradient id="paint32_linear_417_509" x1="126.171" y1="223.495" x2="112.596" y2="261.577" gradientUnits="userSpaceOnUse">
<stop stop-color="#52BEB8"/>
<stop offset="1" stop-color="#308B85"/>
</linearGradient>
<linearGradient id="paint33_linear_417_509" x1="121.564" y1="218.671" x2="168.736" y2="247.657" gradientUnits="userSpaceOnUse">
<stop stop-color="#52BEB8"/>
<stop offset="1" stop-color="#308B85"/>
</linearGradient>
<linearGradient id="paint34_linear_417_509" x1="162.056" y1="212.664" x2="163.345" y2="227.278" gradientUnits="userSpaceOnUse">
<stop stop-color="#52BEB8"/>
<stop offset="1" stop-color="#308B85"/>
</linearGradient>
<linearGradient id="paint35_linear_417_509" x1="69.0326" y1="216.526" x2="64.3896" y2="250.434" gradientUnits="userSpaceOnUse">
<stop stop-color="#52BEB8"/>
<stop offset="1" stop-color="#308B85"/>
</linearGradient>
<linearGradient id="paint36_linear_417_509" x1="83.5494" y1="194.079" x2="84.3622" y2="208.399" gradientUnits="userSpaceOnUse">
<stop offset="0.04" stop-color="#654B1E"/>
<stop offset="1" stop-color="#2E1D12"/>
</linearGradient>
<linearGradient id="paint37_linear_417_509" x1="140.338" y1="83.2649" x2="153.64" y2="103.918" gradientUnits="userSpaceOnUse">
<stop stop-color="#E8E8EB"/>
<stop offset="1" stop-color="#D3D3D3"/>
</linearGradient>
<linearGradient id="paint38_linear_417_509" x1="147.3" y1="91.7208" x2="155.864" y2="102.299" gradientUnits="userSpaceOnUse">
<stop stop-color="#FFB889"/>
<stop offset="1" stop-color="#FF6600"/>
</linearGradient>
<linearGradient id="paint39_linear_417_509" x1="148.897" y1="101.632" x2="153.43" y2="107.675" gradientUnits="userSpaceOnUse">
<stop stop-color="#FFC29A"/>
<stop offset="1" stop-color="#FF6600"/>
</linearGradient>
<linearGradient id="paint40_linear_417_509" x1="284.437" y1="20.9886" x2="289.681" y2="42.2906" gradientUnits="userSpaceOnUse">
<stop stop-color="#FDB27F"/>
<stop offset="1" stop-color="#FF6600"/>
</linearGradient>
<linearGradient id="paint41_linear_417_509" x1="287.149" y1="36.4741" x2="298.856" y2="49.9211" gradientUnits="userSpaceOnUse">
<stop stop-color="#FFB584"/>
<stop offset="1" stop-color="#FF6600"/>
</linearGradient>
<linearGradient id="paint42_linear_417_509" x1="258.885" y1="158.593" x2="232.471" y2="232.95" gradientUnits="userSpaceOnUse">
<stop stop-color="#AAC76F"/>
<stop offset="1" stop-color="#51823B"/>
</linearGradient>
<linearGradient id="paint43_linear_417_509" x1="224.087" y1="142.939" x2="206.537" y2="175.371" gradientUnits="userSpaceOnUse">
<stop stop-color="#AAC76F"/>
<stop offset="1" stop-color="#51823B"/>
</linearGradient>
<linearGradient id="paint44_linear_417_509" x1="221.717" y1="77.766" x2="211.766" y2="91.2865" gradientUnits="userSpaceOnUse">
<stop stop-color="#DBE8C4"/>
<stop offset="1" stop-color="#AAC76F"/>
</linearGradient>
<linearGradient id="paint45_linear_417_509" x1="255.258" y1="161.526" x2="262.62" y2="156.267" gradientUnits="userSpaceOnUse">
<stop stop-color="white"/>
<stop offset="1" stop-color="#DDF1F3"/>
</linearGradient>
<linearGradient id="paint46_linear_417_509" x1="275.336" y1="153.534" x2="250.918" y2="176.968" gradientUnits="userSpaceOnUse">
<stop stop-color="white"/>
<stop offset="1" stop-color="#DDF1F3"/>
</linearGradient>
<linearGradient id="paint47_linear_417_509" x1="36.6893" y1="162.38" x2="40.9065" y2="179.598" gradientUnits="userSpaceOnUse">
<stop stop-color="#DBE8C4"/>
<stop offset="1" stop-color="#FF6600"/>
</linearGradient>
<linearGradient id="paint48_linear_417_509" x1="37.0523" y1="185.041" x2="41.3711" y2="194.295" gradientUnits="userSpaceOnUse">
<stop stop-color="#DBE8C4"/>
<stop offset="1" stop-color="#CB9571"/>
</linearGradient>
<linearGradient id="paint49_linear_417_509" x1="125.697" y1="238.874" x2="127.171" y2="244.871" gradientUnits="userSpaceOnUse">
<stop offset="0.04" stop-color="#654B1E"/>
<stop offset="1" stop-color="#2E1D12"/>
</linearGradient>
<linearGradient id="paint50_linear_417_509" x1="89.621" y1="213.351" x2="72.1601" y2="228.64" gradientUnits="userSpaceOnUse">
<stop stop-color="#52BEB8"/>
<stop offset="1" stop-color="#308B85"/>
</linearGradient>
<linearGradient id="paint51_linear_417_509" x1="90.2545" y1="214.073" x2="72.7934" y2="229.361" gradientUnits="userSpaceOnUse">
<stop stop-color="#52BEB8"/>
<stop offset="1" stop-color="#308B85"/>
</linearGradient>
<linearGradient id="paint52_linear_417_509" x1="90.8858" y1="214.794" x2="73.4246" y2="230.081" gradientUnits="userSpaceOnUse">
<stop stop-color="#52BEB8"/>
<stop offset="1" stop-color="#308B85"/>
</linearGradient>
<linearGradient id="paint53_linear_417_509" x1="165.446" y1="228.629" x2="174.41" y2="241.635" gradientUnits="userSpaceOnUse">
<stop stop-color="#52BEB8"/>
<stop offset="1" stop-color="#308B85"/>
</linearGradient>
<linearGradient id="paint54_linear_417_509" x1="145.227" y1="176.237" x2="143.809" y2="179.793" gradientUnits="userSpaceOnUse">
<stop stop-color="#E8E8EB"/>
<stop offset="1" stop-color="#D3D3D3"/>
</linearGradient>
<linearGradient id="paint55_linear_417_509" x1="141.189" y1="177.493" x2="143.087" y2="181.704" gradientUnits="userSpaceOnUse">
<stop offset="0.04" stop-color="#654B1E"/>
<stop offset="1" stop-color="#2E1D12"/>
</linearGradient>
<linearGradient id="paint56_linear_417_509" x1="136.464" y1="184.045" x2="140.804" y2="179.136" gradientUnits="userSpaceOnUse">
<stop offset="0.04" stop-color="#654B1E"/>
<stop offset="1" stop-color="#2E1D12"/>
</linearGradient>
<linearGradient id="paint57_linear_417_509" x1="171.944" y1="215.433" x2="169.899" y2="220.831" gradientUnits="userSpaceOnUse">
<stop offset="0.04" stop-color="#654B1E"/>
<stop offset="1" stop-color="#2E1D12"/>
</linearGradient>
<linearGradient id="paint58_linear_417_509" x1="162.574" y1="212.267" x2="160.624" y2="217.812" gradientUnits="userSpaceOnUse">
<stop stop-color="#E8E8EB"/>
<stop offset="1" stop-color="#D3D3D3"/>
</linearGradient>
<linearGradient id="paint59_linear_417_509" x1="161.583" y1="171.607" x2="156.342" y2="178.876" gradientUnits="userSpaceOnUse">
<stop stop-color="white"/>
<stop offset="1" stop-color="#DDF1F3"/>
</linearGradient>
<linearGradient id="paint60_linear_417_509" x1="37.8304" y1="169.056" x2="41.2543" y2="181.353" gradientUnits="userSpaceOnUse">
<stop stop-color="#FAB07F"/>
<stop offset="1" stop-color="#FF6600"/>
</linearGradient>
<linearGradient id="paint61_linear_417_509" x1="240.287" y1="80.04" x2="225.254" y2="99.4377" gradientUnits="userSpaceOnUse">
<stop stop-color="#AAC76F"/>
<stop offset="1" stop-color="#51823B"/>
</linearGradient>
<linearGradient id="paint62_linear_417_509" x1="261.252" y1="75.5461" x2="250.012" y2="95.6874" gradientUnits="userSpaceOnUse">
<stop stop-color="#DBE8C4"/>
<stop offset="1" stop-color="#AAC76F"/>
</linearGradient>
<linearGradient id="paint63_linear_417_509" x1="277.708" y1="82.7808" x2="262.153" y2="98.1126" gradientUnits="userSpaceOnUse">
<stop stop-color="#AAC76F"/>
<stop offset="1" stop-color="#51823B"/>
</linearGradient>
<linearGradient id="paint64_linear_417_509" x1="301.342" y1="76.4431" x2="282.749" y2="95.482" gradientUnits="userSpaceOnUse">
<stop stop-color="#DBE8C4"/>
<stop offset="1" stop-color="#AAC76F"/>
</linearGradient>
<linearGradient id="paint65_linear_417_509" x1="282.286" y1="97.5871" x2="281.973" y2="95.11" gradientUnits="userSpaceOnUse">
<stop stop-color="#C98348"/>
<stop offset="1" stop-color="#D2A651"/>
</linearGradient>
<linearGradient id="paint66_linear_417_509" x1="312.872" y1="82.1063" x2="296.779" y2="100.25" gradientUnits="userSpaceOnUse">
<stop stop-color="#AAC76F"/>
<stop offset="1" stop-color="#51823B"/>
</linearGradient>
<linearGradient id="paint67_linear_417_509" x1="317.035" y1="97.5828" x2="316.92" y2="96.6663" gradientUnits="userSpaceOnUse">
<stop stop-color="#C98348"/>
<stop offset="1" stop-color="#D2A651"/>
</linearGradient>
</defs>
</svg>
